{
.appVersion = "939";
DisplayStrings = (

glyphs = (
{
glyphname = A;
lastChange = "2016-11-17 19:24:45 +0000";
layers = (
{
layerId = "262880E7-CFE1-4BDA-902E-E24798F3240A";
paths = (
{
closed = 1;
nodes = (
"51 0 LINE",
"231 658 LINE",
"410 0 LINE",
"433 0 LINE",
"242 700 LINE",
"219 700 LINE",
"28 0 LINE"
);
},
{
closed = 1;
nodes = (
"380 155 LINE",
"380 176 LINE",
"85 176 LINE",
"85 155 LINE"
);
}
);
width = 461;
},
{
layerId = "4E2227F3-52E4-4048-A8EE-327B486EF0A4";
paths = (
{
closed = 1;
nodes = (
"196 0 LINE",
"282 449 LINE",
"354 0 LINE",
"547 0 LINE",
"383 700 LINE",
"172 700 LINE",
"8 0 LINE"
);
},
{
closed = 1;
nodes = (
"415 100 LINE",
"415 244 LINE",
"136 244 LINE",
"136 100 LINE"
);
}
);
width = 555;
},
{
associatedMasterId = "262880E7-CFE1-4BDA-902E-E24798F3240A";
layerId = "1274BDA7-A57A-49E6-A7E6-98647C4EC339";
name = "{95,100}";
paths = (
{
closed = 1;
nodes = (
"112 0 LINE",
"251 567 LINE",
"383 0 LINE",
"480 0 LINE",
"301 700 LINE",
"196 700 LINE",
"17 0 LINE"
);
},
{
closed = 1;
nodes = (
"393 130 LINE",
"393 220 LINE",
"105 220 LINE",
"105 130 LINE"
);
}
);
width = 498;
}
);
leftKerningGroup = A;
rightKerningGroup = A;
unicode = 0041;
},
{
glyphname = B;
lastChange = "2016-11-17 19:17:51 +0000";
layers = (
{
layerId = "262880E7-CFE1-4BDA-902E-E24798F3240A";
paths = (
{
closed = 1;
nodes = (
"78 679 LINE",
"227 679 LINE SMOOTH",
"319 679 OFFCURVE",
"379 617 OFFCURVE",
"379 523 CURVE SMOOTH",
"379 432 OFFCURVE",
"319 372 OFFCURVE",
"227 372 CURVE SMOOTH",
"78 372 LINE"
);
},
{
closed = 1;
nodes = (
"227 351 LINE SMOOTH",
"332 351 OFFCURVE",
"401 420 OFFCURVE",
"401 523 CURVE SMOOTH",
"401 629 OFFCURVE",
"332 700 OFFCURVE",
"227 700 CURVE SMOOTH",
"56 700 LINE",
"56 351 LINE"
);
},
{
closed = 1;
nodes = (
"78 351 LINE",
"227 351 LINE SMOOTH",
"319 351 OFFCURVE",
"380 284 OFFCURVE",
"380 186 CURVE SMOOTH",
"380 88 OFFCURVE",
"319 22 OFFCURVE",
"227 22 CURVE SMOOTH",
"78 22 LINE"
);
},
{
closed = 1;
nodes = (
"227 0 LINE SMOOTH",
"332 0 OFFCURVE",
"402 74 OFFCURVE",
"402 186 CURVE SMOOTH",
"402 298 OFFCURVE",
"332 372 OFFCURVE",
"227 372 CURVE SMOOTH",
"56 372 LINE",
"56 0 LINE"
);
}
);
width = 437;
},
{
layerId = "4E2227F3-52E4-4048-A8EE-327B486EF0A4";
paths = (
{
closed = 1;
nodes = (
"210 530 LINE",
"240 530 LINE",
"267 530 OFFCURVE",
"285 512 OFFCURVE",
"285 479 CURVE SMOOTH",
"285 446 OFFCURVE",
"267 425 OFFCURVE",
"240 425 CURVE",
"210 425 LINE"
);
},
{
closed = 1;
nodes = (
"194 317 LINE SMOOTH",
"382 317 OFFCURVE",
"473 367 OFFCURVE",
"473 503 CURVE SMOOTH",
"473 640 OFFCURVE",
"377 700 OFFCURVE",
"232 700 CURVE",
"22 700 LINE",
"22 317 LINE"
);
},
{
closed = 1;
nodes = (
"210 286 LINE",
"247 286 LINE SMOOTH",
"278 286 OFFCURVE",
"298 260 OFFCURVE",
"298 225 CURVE SMOOTH",
"298 190 OFFCURVE",
"277 170 OFFCURVE",
"246 170 CURVE SMOOTH",
"210 170 LINE"
);
},
{
closed = 1;
nodes = (
"261 0 LINE SMOOTH",
"386 0 OFFCURVE",
"486 63 OFFCURVE",
"486 204 CURVE SMOOTH",
"486 355 OFFCURVE",
"324 411 OFFCURVE",
"194 411 CURVE",
"22 411 LINE",
"22 0 LINE"
);
}
);
width = 496;
},
{
associatedMasterId = "262880E7-CFE1-4BDA-902E-E24798F3240A";
layerId = "93E0B52A-A210-4120-ABA1-15C31411DBBB";
name = "{95,100}";
paths = (
{
closed = 1;
nodes = (
"146 612 LINE",
"241 612 LINE SMOOTH",
"308 612 OFFCURVE",
"351 570 OFFCURVE",
"351 504 CURVE SMOOTH",
"351 439 OFFCURVE",
"308 398 OFFCURVE",
"241 398 CURVE SMOOTH",
"146 398 LINE"
);
},
{
closed = 1;
nodes = (
"239 329 LINE SMOOTH",
"365 329 OFFCURVE",
"443 399 OFFCURVE",
"443 514 CURVE SMOOTH",
"443 629 OFFCURVE",
"363 700 OFFCURVE",
"234 700 CURVE SMOOTH",
"51 700 LINE",
"51 329 LINE"
);
},
{
closed = 1;
nodes = (
"146 317 LINE",
"241 317 LINE SMOOTH",
"311 317 OFFCURVE",
"354 273 OFFCURVE",
"354 205 CURVE SMOOTH",
"354 135 OFFCURVE",
"311 89 OFFCURVE",
"241 89 CURVE SMOOTH",
"146 89 LINE"
);
},
{
closed = 1;
nodes = (
"248 0 LINE SMOOTH",
"372 0 OFFCURVE",
"449 74 OFFCURVE",
"449 193 CURVE SMOOTH",
"449 316 OFFCURVE",
"369 393 OFFCURVE",
"241 393 CURVE SMOOTH",
"51 393 LINE",
"51 0 LINE"
);
}
);
width = 470;
}
);
leftKerningGroup = H;
rightKerningGroup = B;
unicode = 0042;
},
{
glyphname = C;
lastChange = "2016-11-17 19:05:00 +0000";
layers = (
{
layerId = "262880E7-CFE1-4BDA-902E-E24798F3240A";
paths = (
{
closed = 1;
nodes = (
"325 -9 OFFCURVE",
"392 56 OFFCURVE",
"392 154 CURVE SMOOTH",
"392 179 LINE",
"369 179 LINE",
"369 152 LINE SMOOTH",
"369 68 OFFCURVE",
"312 12 OFFCURVE",
"224 12 CURVE SMOOTH",
"136 12 OFFCURVE",
"78 68 OFFCURVE",
"78 152 CURVE SMOOTH",
"78 548 LINE SMOOTH",
"78 632 OFFCURVE",
"136 688 OFFCURVE",
"224 688 CURVE SMOOTH",
"312 688 OFFCURVE",
"369 632 OFFCURVE",
"369 548 CURVE SMOOTH",
"369 520 LINE",
"392 520 LINE",
"392 546 LINE SMOOTH",
"392 644 OFFCURVE",
"325 709 OFFCURVE",
"224 709 CURVE SMOOTH",
"123 709 OFFCURVE",
"56 644 OFFCURVE",
"56 546 CURVE SMOOTH",
"56 154 LINE SMOOTH",
"56 56 OFFCURVE",
"123 -9 OFFCURVE",
"224 -9 CURVE SMOOTH"
);
}
);
width = 427;
},
{
layerId = "4E2227F3-52E4-4048-A8EE-327B486EF0A4";
paths = (
{
closed = 1;
nodes = (
"389 -11 OFFCURVE",
"482 75 OFFCURVE",
"482 205 CURVE SMOOTH",
"482 231 LINE",
"294 231 LINE",
"294 194 LINE SMOOTH",
"294 168 OFFCURVE",
"276 150 OFFCURVE",
"250 150 CURVE SMOOTH",
"224 150 OFFCURVE",
"206 168 OFFCURVE",
"206 194 CURVE SMOOTH",
"206 508 LINE SMOOTH",
"206 534 OFFCURVE",
"224 552 OFFCURVE",
"250 552 CURVE SMOOTH",
"276 552 OFFCURVE",
"294 534 OFFCURVE",
"294 508 CURVE SMOOTH",
"294 470 LINE",
"482 470 LINE",
"482 497 LINE SMOOTH",
"482 627 OFFCURVE",
"389 713 OFFCURVE",
"250 713 CURVE SMOOTH",
"111 713 OFFCURVE",
"18 627 OFFCURVE",
"18 497 CURVE SMOOTH",
"18 205 LINE SMOOTH",
"18 75 OFFCURVE",
"111 -11 OFFCURVE",
"250 -11 CURVE SMOOTH"
);
}
);
width = 498;
},
{
associatedMasterId = "262880E7-CFE1-4BDA-902E-E24798F3240A";
layerId = "720A3B58-5B9D-4DCC-84D4-46C8C80683FD";
name = "{95,100}";
paths = (
{
closed = 1;
nodes = (
"349 -10 OFFCURVE",
"427 64 OFFCURVE",
"427 176 CURVE SMOOTH",
"427 202 LINE",
"332 202 LINE",
"332 178 LINE SMOOTH",
"332 120 OFFCURVE",
"292 80 OFFCURVE",
"233 80 CURVE SMOOTH",
"173 80 OFFCURVE",
"133 120 OFFCURVE",
"133 178 CURVE SMOOTH",
"133 523 LINE SMOOTH",
"133 581 OFFCURVE",
"173 621 OFFCURVE",
"233 621 CURVE SMOOTH",
"292 621 OFFCURVE",
"332 581 OFFCURVE",
"332 523 CURVE SMOOTH",
"332 498 LINE",
"427 498 LINE",
"427 525 LINE SMOOTH",
"427 637 OFFCURVE",
"349 711 OFFCURVE",
"233 711 CURVE SMOOTH",
"116 711 OFFCURVE",
"38 637 OFFCURVE",
"38 525 CURVE SMOOTH",
"38 176 LINE SMOOTH",
"38 64 OFFCURVE",
"116 -10 OFFCURVE",
"233 -10 CURVE SMOOTH"
);
}
);
width = 461;
}
);
leftKerningGroup = O;
rightKerningGroup = C;
unicode = 0043;
},
{
glyphname = D;
lastChange = "2016-11-17 19:18:12 +0000";
layers = (
{
layerId = "262880E7-CFE1-4BDA-902E-E24798F3240A";
paths = (
{
closed = 1;
nodes = (
"226 0 LINE SMOOTH",
"328 0 OFFCURVE",
"391 68 OFFCURVE",
"391 180 CURVE SMOOTH",
"391 520 LINE SMOOTH",
"391 632 OFFCURVE",
"328 700 OFFCURVE",
"226 700 CURVE SMOOTH",
"63 700 LINE",
"63 0 LINE"
);
},
{
closed = 1;
nodes = (
"85 679 LINE",
"228 679 LINE SMOOTH",
"315 679 OFFCURVE",
"369 619 OFFCURVE",
"369 520 CURVE SMOOTH",
"369 179 LINE SMOOTH",
"369 81 OFFCURVE",
"315 21 OFFCURVE",
"228 21 CURVE SMOOTH",
"85 21 LINE"
);
}
);
width = 440;
},
{
layerId = "4E2227F3-52E4-4048-A8EE-327B486EF0A4";
paths = (
{
closed = 1;
nodes = (
"257 0 LINE SMOOTH",
"390 0 OFFCURVE",
"482 80 OFFCURVE",
"482 200 CURVE SMOOTH",
"482 500 LINE SMOOTH",
"482 620 OFFCURVE",
"390 700 OFFCURVE",
"257 700 CURVE SMOOTH",
"22 700 LINE",
"22 0 LINE"
);
},
{
closed = 1;
nodes = (
"210 530 LINE",
"242 530 LINE SMOOTH",
"273 530 OFFCURVE",
"294 510 OFFCURVE",
"294 479 CURVE",
"294 222 LINE",
"292 192 OFFCURVE",
"271 172 OFFCURVE",
"242 171 CURVE SMOOTH",
"210 170 LINE"
);
}
);
width = 502;
},
{
associatedMasterId = "262880E7-CFE1-4BDA-902E-E24798F3240A";
layerId = "2C84FD61-1044-497C-B585-08307607F25A";
name = "{95,100}";
paths = (
{
closed = 1;
nodes = (
"241 0 LINE SMOOTH",
"357 0 OFFCURVE",
"432 73 OFFCURVE",
"432 189 CURVE SMOOTH",
"432 511 LINE SMOOTH",
"432 627 OFFCURVE",
"357 700 OFFCURVE",
"241 700 CURVE SMOOTH",
"47 700 LINE",
"47 0 LINE"
);
},
{
closed = 1;
nodes = (
"141 610 LINE",
"236 610 LINE SMOOTH",
"298 610 OFFCURVE",
"338 567 OFFCURVE",
"338 498 CURVE SMOOTH",
"338 202 LINE SMOOTH",
"338 133 OFFCURVE",
"297 90 OFFCURVE",
"236 90 CURVE SMOOTH",
"141 90 LINE"
);
}
);
width = 475;
}
);
leftKerningGroup = H;
rightKerningGroup = B;
unicode = 0044;
},
{
glyphname = E;
lastChange = "2016-11-17 19:17:51 +0000";
layers = (
{
layerId = "262880E7-CFE1-4BDA-902E-E24798F3240A";
paths = (
{
closed = 1;
nodes = (
"389 0 LINE",
"389 21 LINE",
"85 21 LINE",
"85 679 LINE",
"389 679 LINE",
"389 700 LINE",
"63 700 LINE",
"63 0 LINE"
);
},
{
closed = 1;
nodes = (
"296 340 LINE",
"296 361 LINE",
"74 361 LINE",
"74 340 LINE"
);
}
);
width = 417;
},
{
layerId = "4E2227F3-52E4-4048-A8EE-327B486EF0A4";
paths = (
{
closed = 1;
nodes = (
"457 0 LINE",
"457 170 LINE",
"210 170 LINE",
"210 530 LINE",
"457 530 LINE",
"457 700 LINE",
"22 700 LINE",
"22 0 LINE"
);
},
{
closed = 1;
nodes = (
"358 265 LINE",
"358 435 LINE",
"98 435 LINE",
"98 265 LINE"
);
}
);
width = 469;
},
{
associatedMasterId = "262880E7-CFE1-4BDA-902E-E24798F3240A";
layerId = "7AF0CB16-15C6-4853-92DB-28FAD9498105";
name = "{95,100}";
paths = (
{
closed = 1;
nodes = (
"420 0 LINE",
"420 92 LINE",
"141 92 LINE",
"141 608 LINE",
"420 608 LINE",
"420 700 LINE",
"47 700 LINE",
"47 0 LINE"
);
},
{
closed = 1;
nodes = (
"325 307 LINE",
"325 398 LINE",
"86 398 LINE",
"86 307 LINE"
);
}
);
width = 446;
}
);
leftKerningGroup = H;
unicode = 0045;
},
{
glyphname = F;
lastChange = "2016-11-17 19:22:50 +0000";
layers = (
{
layerId = "262880E7-CFE1-4BDA-902E-E24798F3240A";
paths = (
{
closed = 1;
nodes = (
"85 0 LINE",
"85 679 LINE",
"388 679 LINE",
"388 700 LINE",
"63 700 LINE",
"63 0 LINE"
);
},
{
closed = 1;
nodes = (
"295 340 LINE",
"295 361 LINE",
"74 361 LINE",
"74 340 LINE"
);
}
);
width = 409;
},
{
layerId = "4E2227F3-52E4-4048-A8EE-327B486EF0A4";
paths = (
{
closed = 1;
nodes = (
"210 0 LINE",
"210 530 LINE",
"457 530 LINE",
"457 700 LINE",
"22 700 LINE",
"22 0 LINE"
);
},
{
closed = 1;
nodes = (
"358 265 LINE",
"358 435 LINE",
"98 435 LINE",
"98 265 LINE"
);
}
);
width = 467;
},
{
associatedMasterId = "262880E7-CFE1-4BDA-902E-E24798F3240A";
layerId = "9C1922F2-4246-4C06-8262-FD2BFEB23C93";
name = "{95,100}";
paths = (
{
closed = 1;
nodes = (
"141 0 LINE",
"141 608 LINE",
"420 608 LINE",
"420 700 LINE",
"47 700 LINE",
"47 0 LINE"
);
},
{
closed = 1;
nodes = (
"324 307 LINE",
"324 399 LINE",
"86 399 LINE",
"86 307 LINE"
);
}
);
width = 441;
}
);
leftKerningGroup = H;
unicode = 0046;
},
{
glyphname = G;
lastChange = "2016-11-17 19:22:27 +0000";
layers = (
{
layerId = "262880E7-CFE1-4BDA-902E-E24798F3240A";
paths = (
{
closed = 1;
nodes = (
"325 -9 OFFCURVE",
"391 56 OFFCURVE",
"391 154 CURVE SMOOTH",
"391 361 LINE",
"232 361 LINE",
"232 340 LINE",
"369 340 LINE",
"369 152 LINE SMOOTH",
"369 68 OFFCURVE",
"312 12 OFFCURVE",
"224 12 CURVE SMOOTH",
"136 12 OFFCURVE",
"78 68 OFFCURVE",
"78 152 CURVE SMOOTH",
"78 548 LINE SMOOTH",
"78 632 OFFCURVE",
"136 688 OFFCURVE",
"224 688 CURVE SMOOTH",
"312 688 OFFCURVE",
"369 632 OFFCURVE",
"369 548 CURVE SMOOTH",
"369 500 LINE",
"391 500 LINE",
"391 546 LINE SMOOTH",
"391 644 OFFCURVE",
"325 709 OFFCURVE",
"224 709 CURVE SMOOTH",
"123 709 OFFCURVE",
"56 644 OFFCURVE",
"56 546 CURVE SMOOTH",
"56 154 LINE SMOOTH",
"56 56 OFFCURVE",
"123 -9 OFFCURVE",
"224 -9 CURVE SMOOTH"
);
}
);
width = 426;
},
{
layerId = "4E2227F3-52E4-4048-A8EE-327B486EF0A4";
paths = (
{
closed = 1;
nodes = (
"386 -11 OFFCURVE",
"478 72 OFFCURVE",
"478 196 CURVE SMOOTH",
"478 380 LINE",
"250 380 LINE",
"250 271 LINE",
"290 271 LINE",
"290 192 LINE SMOOTH",
"290 167 OFFCURVE",
"273 150 OFFCURVE",
"248 150 CURVE SMOOTH",
"223 150 OFFCURVE",
"206 167 OFFCURVE",
"206 192 CURVE SMOOTH",
"206 509 LINE SMOOTH",
"206 534 OFFCURVE",
"223 551 OFFCURVE",
"248 551 CURVE SMOOTH",
"273 551 OFFCURVE",
"290 534 OFFCURVE",
"290 509 CURVE SMOOTH",
"290 430 LINE",
"478 430 LINE",
"478 503 LINE SMOOTH",
"478 628 OFFCURVE",
"386 712 OFFCURVE",
"248 712 CURVE SMOOTH",
"110 712 OFFCURVE",
"18 629 OFFCURVE",
"18 505 CURVE SMOOTH",
"18 196 LINE SMOOTH",
"18 72 OFFCURVE",
"110 -11 OFFCURVE",
"248 -11 CURVE SMOOTH"
);
}
);
width = 496;
},
{
associatedMasterId = "262880E7-CFE1-4BDA-902E-E24798F3240A";
layerId = "81F7C966-F8F1-415C-A234-62D5C18AA009";
name = "{95,100}";
paths = (
{
closed = 1;
nodes = (
"348 -10 OFFCURVE",
"424 63 OFFCURVE",
"424 172 CURVE SMOOTH",
"424 374 LINE",
"237 374 LINE",
"237 284 LINE",
"330 284 LINE",
"330 177 LINE SMOOTH",
"330 119 OFFCURVE",
"291 80 OFFCURVE",
"232 80 CURVE SMOOTH",
"172 80 OFFCURVE",
"133 119 OFFCURVE",
"133 177 CURVE SMOOTH",
"133 523 LINE SMOOTH",
"133 581 OFFCURVE",
"172 620 OFFCURVE",
"232 620 CURVE SMOOTH",
"291 620 OFFCURVE",
"330 581 OFFCURVE",
"330 523 CURVE SMOOTH",
"330 469 LINE",
"424 469 LINE",
"424 527 LINE SMOOTH",
"424 637 OFFCURVE",
"348 710 OFFCURVE",
"232 710 CURVE SMOOTH",
"116 710 OFFCURVE",
"38 637 OFFCURVE",
"38 528 CURVE SMOOTH",
"38 172 LINE SMOOTH",
"38 63 OFFCURVE",
"116 -10 OFFCURVE",
"232 -10 CURVE SMOOTH"
);
}
);
width = 463;
}
);
leftKerningGroup = O;
rightKerningGroup = G;
unicode = 0047;
},
{
glyphname = H;
lastChange = "2016-11-17 19:12:24 +0000";
layers = (
{
layerId = "262880E7-CFE1-4BDA-902E-E24798F3240A";
paths = (
{
closed = 1;
nodes = (
"391 0 LINE",
"391 700 LINE",
"368 700 LINE",
"368 0 LINE"
);
},
{
closed = 1;
nodes = (
"85 0 LINE",
"85 700 LINE",
"63 700 LINE",
"63 0 LINE"
);
},
{
closed = 1;
nodes = (
"374 340 LINE",
"374 361 LINE",
"80 361 LINE",
"80 340 LINE"
);
}
);
width = 454;
},
{
layerId = "4E2227F3-52E4-4048-A8EE-327B486EF0A4";
paths = (
{
closed = 1;
nodes = (
"472 0 LINE",
"472 700 LINE",
"284 700 LINE",
"284 0 LINE"
);
},
{
closed = 1;
nodes = (
"210 0 LINE",
"210 700 LINE",
"22 700 LINE",
"22 0 LINE"
);
},
{
closed = 1;
nodes = (
"378 265 LINE",
"378 435 LINE",
"118 435 LINE",
"118 265 LINE"
);
}
);
width = 494;
},
{
associatedMasterId = "262880E7-CFE1-4BDA-902E-E24798F3240A";
layerId = "31823E21-3C14-46CD-9A59-ED0DFD05051D";
name = "{95,100}";
paths = (
{
closed = 1;
nodes = (
"428 0 LINE",
"428 700 LINE",
"333 700 LINE",
"333 0 LINE"
);
},
{
closed = 1;
nodes = (
"141 0 LINE",
"141 700 LINE",
"47 700 LINE",
"47 0 LINE"
);
},
{
closed = 1;
nodes = (
"377 307 LINE",
"377 397 LINE",
"98 397 LINE",
"98 307 LINE"
);
}
);
width = 475;
}
);
unicode = 0048;
},
{
glyphname = I;
lastChange = "2016-11-17 19:12:24 +0000";
layers = (
{
layerId = "262880E7-CFE1-4BDA-902E-E24798F3240A";
paths = (
{
closed = 1;
nodes = (
"85 0 LINE",
"85 700 LINE",
"63 700 LINE",
"63 0 LINE"
);
}
);
width = 148;
},
{
layerId = "4E2227F3-52E4-4048-A8EE-327B486EF0A4";
paths = (
{
closed = 1;
nodes = (
"210 0 LINE",
"210 700 LINE",
"22 700 LINE",
"22 0 LINE"
);
}
);
width = 232;
}
);
unicode = 0049;
},
{
glyphname = J;
lastChange = "2016-11-17 19:13:16 +0000";
layers = (
{
layerId = "262880E7-CFE1-4BDA-902E-E24798F3240A";
paths = (
{
closed = 1;
nodes = (
"289 -9 OFFCURVE",
"354 56 OFFCURVE",
"354 154 CURVE SMOOTH",
"354 700 LINE",
"332 700 LINE",
"332 152 LINE SMOOTH",
"332 68 OFFCURVE",
"275 12 OFFCURVE",
"191 12 CURVE SMOOTH",
"107 12 OFFCURVE",
"50 68 OFFCURVE",
"50 152 CURVE SMOOTH",
"50 234 LINE",
"28 234 LINE",
"28 154 LINE SMOOTH",
"28 56 OFFCURVE",
"93 -9 OFFCURVE",
"191 -9 CURVE SMOOTH"
);
}
);
width = 417;
},
{
layerId = "4E2227F3-52E4-4048-A8EE-327B486EF0A4";
paths = (
{
closed = 1;
nodes = (
"368 -8 OFFCURVE",
"460 72 OFFCURVE",
"460 192 CURVE SMOOTH",
"460 700 LINE",
"272 700 LINE",
"272 204 LINE SMOOTH",
"272 179 OFFCURVE",
"255 162 OFFCURVE",
"230 162 CURVE SMOOTH",
"205 162 OFFCURVE",
"188 179 OFFCURVE",
"188 204 CURVE SMOOTH",
"188 265 LINE",
"0 265 LINE",
"0 192 LINE SMOOTH",
"0 72 OFFCURVE",
"92 -8 OFFCURVE",
"230 -8 CURVE SMOOTH"
);
}
);
width = 482;
},
{
associatedMasterId = "262880E7-CFE1-4BDA-902E-E24798F3240A";
layerId = "65148597-B97A-49CF-A63D-3D6183A855C1";
name = "{95,100}";
paths = (
{
closed = 1;
nodes = (
"342 -9 OFFCURVE",
"419 63 OFFCURVE",
"419 171 CURVE SMOOTH",
"419 700 LINE",
"324 700 LINE",
"324 179 LINE SMOOTH",
"324 120 OFFCURVE",
"285 81 OFFCURVE",
"226 81 CURVE SMOOTH",
"168 81 OFFCURVE",
"128 120 OFFCURVE",
"128 179 CURVE SMOOTH",
"128 248 LINE",
"34 248 LINE",
"34 171 LINE SMOOTH",
"34 63 OFFCURVE",
"111 -9 OFFCURVE",
"226 -9 CURVE SMOOTH"
);
}
);
width = 465;
}
);
leftKerningGroup = J;
rightKerningGroup = U;
unicode = 004A;
},
{
glyphname = K;
lastChange = "2016-11-17 19:12:24 +0000";
layers = (
{
layerId = "262880E7-CFE1-4BDA-902E-E24798F3240A";
paths = (
{
closed = 1;
nodes = (
"85 0 LINE",
"85 328 LINE",
"351 0 LINE",
"379 0 LINE",
"93 350 LINE",
"379 700 LINE",
"351 700 LINE",
"85 372 LINE",
"85 700 LINE",
"63 700 LINE",
"63 0 LINE"
);
}
);
width = 379;
},
{
layerId = "4E2227F3-52E4-4048-A8EE-327B486EF0A4";
paths = (
{
closed = 1;
nodes = (
"210 0 LINE",
"210 225 LINE",
"288 0 LINE",
"503 0 LINE",
"331 354 LINE",
"501 700 LINE",
"283 700 LINE",
"210 473 LINE",
"210 700 LINE",
"22 700 LINE",
"22 0 LINE"
);
}
);
width = 503;
}
);
rightKerningGroup = K;
unicode = 004B;
},
{
glyphname = L;
lastChange = "2016-11-17 19:16:13 +0000";
layers = (
{
layerId = "262880E7-CFE1-4BDA-902E-E24798F3240A";
paths = (
{
closed = 1;
nodes = (
"380 0 LINE",
"380 21 LINE",
"85 21 LINE",
"85 700 LINE",
"63 700 LINE",
"63 0 LINE"
);
}
);
width = 394;
},
{
layerId = "4E2227F3-52E4-4048-A8EE-327B486EF0A4";
paths = (
{
closed = 1;
nodes = (
"457 0 LINE",
"457 170 LINE",
"210 170 LINE",
"210 700 LINE",
"22 700 LINE",
"22 0 LINE"
);
}
);
width = 461;
},
{
associatedMasterId = "262880E7-CFE1-4BDA-902E-E24798F3240A";
layerId = "B734E69C-2AF6-42EC-9D16-BBE1A7449BD3";
name = "{95,100}";
paths = (
{
closed = 1;
nodes = (
"415 0 LINE",
"415 90 LINE",
"141 90 LINE",
"141 700 LINE",
"47 700 LINE",
"47 0 LINE"
);
}
);
width = 424;
}
);
rightKerningGroup = L;
unicode = 004C;
},
{
glyphname = M;
lastChange = "2016-11-17 19:17:51 +0000";
layers = (
{
layerId = "262880E7-CFE1-4BDA-902E-E24798F3240A";
paths = (
{
closed = 1;
nodes = (
"78 0 LINE",
"78 651 LINE",
"237 327 LINE",
"396 651 LINE",
"396 0 LINE",
"418 0 LINE",
"418 700 LINE",
"396 700 LINE",
"237 372 LINE",
"78 700 LINE",
"56 700 LINE",
"56 0 LINE"
);
}
);
width = 474;
},
{
layerId = "4E2227F3-52E4-4048-A8EE-327B486EF0A4";
paths = (
{
closed = 1;
nodes = (
"210 0 LINE",
"210 424 LINE",
"277 296 LINE",
"342 421 LINE",
"342 0 LINE",
"530 0 LINE",
"530 700 LINE",
"347 700 LINE",
"277 562 LINE",
"205 700 LINE",
"22 700 LINE",
"22 0 LINE"
);
}
);
width = 552;
},
{
associatedMasterId = "262880E7-CFE1-4BDA-902E-E24798F3240A";
layerId = "187E669A-7479-4BB4-826A-9BA31BA174C6";
name = "{95,100}";
paths = (
{
closed = 1;
nodes = (
"141 0 LINE",
"141 515 LINE",
"260 284 LINE",
"378 514 LINE",
"378 0 LINE",
"473 0 LINE",
"473 700 LINE",
"380 700 LINE",
"260 455 LINE",
"139 700 LINE",
"47 700 LINE",
"47 0 LINE"
);
}
);
width = 519;
}
);
unicode = 004D;
},
{
glyphname = N;
lastChange = "2016-11-17 19:24:19 +0000";
layers = (
{
layerId = "262880E7-CFE1-4BDA-902E-E24798F3240A";
paths = (
{
closed = 1;
nodes = (
"78 0 LINE",
"78 647 LINE",
"378 0 LINE",
"400 0 LINE",
"400 700 LINE",
"378 700 LINE",
"378 53 LINE",
"78 700 LINE",
"56 700 LINE",
"56 0 LINE"
);
}
);
width = 456;
},
{
layerId = "4E2227F3-52E4-4048-A8EE-327B486EF0A4";
paths = (
{
closed = 1;
nodes = (
"208 0 LINE",
"206 346 LINE",
"304 0 LINE",
"508 0 LINE",
"508 700 LINE",
"322 700 LINE",
"324 356 LINE",
"226 700 LINE",
"22 700 LINE",
"22 0 LINE"
);
}
);
width = 530;
},
{
associatedMasterId = "262880E7-CFE1-4BDA-902E-E24798F3240A";
layerId = "B68339A5-228C-407B-A604-C2C0356B3DF7";
name = "{95,100}";
paths = (
{
closed = 1;
nodes = (
"143 0 LINE",
"143 463 LINE",
"350 0 LINE",
"443 0 LINE",
"443 700 LINE",
"348 700 LINE",
"348 229 LINE",
"141 700 LINE",
"47 700 LINE",
"47 0 LINE"
);
}
);
width = 490;
}
);
leftKerningGroup = H;
rightKerningGroup = H;
unicode = 004E;
},
{
glyphname = O;
lastChange = "2016-11-17 19:09:14 +0000";
layers = (
{
layerId = "262880E7-CFE1-4BDA-902E-E24798F3240A";
paths = (
{
closed = 1;
nodes = (
"325 -9 OFFCURVE",
"394 56 OFFCURVE",
"394 154 CURVE SMOOTH",
"394 546 LINE SMOOTH",
"394 644 OFFCURVE",
"325 709 OFFCURVE",
"221 709 CURVE SMOOTH",
"118 709 OFFCURVE",
"49 644 OFFCURVE",
"49 546 CURVE SMOOTH",
"49 154 LINE SMOOTH",
"49 56 OFFCURVE",
"118 -9 OFFCURVE",
"221 -9 CURVE SMOOTH"
);
},
{
closed = 1;
nodes = (
"131 12 OFFCURVE",
"71 68 OFFCURVE",
"71 152 CURVE SMOOTH",
"71 548 LINE SMOOTH",
"71 632 OFFCURVE",
"131 688 OFFCURVE",
"221 688 CURVE SMOOTH",
"312 688 OFFCURVE",
"372 632 OFFCURVE",
"372 548 CURVE SMOOTH",
"372 152 LINE SMOOTH",
"372 68 OFFCURVE",
"312 12 OFFCURVE",
"221 12 CURVE SMOOTH"
);
}
);
width = 443;
},
{
layerId = "4E2227F3-52E4-4048-A8EE-327B486EF0A4";
paths = (
{
closed = 1;
nodes = (
"402 -12 OFFCURVE",
"498 78 OFFCURVE",
"498 214 CURVE SMOOTH",
"498 486 LINE SMOOTH",
"498 622 OFFCURVE",
"402 712 OFFCURVE",
"259 712 CURVE SMOOTH",
"116 712 OFFCURVE",
"20 622 OFFCURVE",
"20 486 CURVE SMOOTH",
"20 214 LINE SMOOTH",
"20 78 OFFCURVE",
"116 -12 OFFCURVE",
"259 -12 CURVE SMOOTH"
);
},
{
closed = 1;
nodes = (
"228 149 OFFCURVE",
"208 174 OFFCURVE",
"208 203 CURVE SMOOTH",
"208 497 LINE SMOOTH",
"208 526 OFFCURVE",
"228 551 OFFCURVE",
"259 551 CURVE SMOOTH",
"290 551 OFFCURVE",
"310 526 OFFCURVE",
"310 497 CURVE SMOOTH",
"310 203 LINE SMOOTH",
"310 174 OFFCURVE",
"290 149 OFFCURVE",
"259 149 CURVE SMOOTH"
);
}
);
width = 518;
},
{
associatedMasterId = "262880E7-CFE1-4BDA-902E-E24798F3240A";
layerId = "C54DB89B-6500-4B9B-BC80-E29993877229";
name = "{95,100}";
paths = (
{
closed = 1;
nodes = (
"365 -10 OFFCURVE",
"446 66 OFFCURVE",
"446 180 CURVE SMOOTH",
"446 520 LINE SMOOTH",
"446 634 OFFCURVE",
"365 710 OFFCURVE",
"244 710 CURVE SMOOTH",
"123 710 OFFCURVE",
"43 634 OFFCURVE",
"43 520 CURVE SMOOTH",
"43 180 LINE SMOOTH",
"43 66 OFFCURVE",
"123 -10 OFFCURVE",
"244 -10 CURVE SMOOTH"
);
},
{
closed = 1;
nodes = (
"180 80 OFFCURVE",
"137 122 OFFCURVE",
"137 182 CURVE SMOOTH",
"137 518 LINE SMOOTH",
"137 578 OFFCURVE",
"180 620 OFFCURVE",
"244 620 CURVE SMOOTH",
"309 620 OFFCURVE",
"351 578 OFFCURVE",
"351 518 CURVE SMOOTH",
"351 182 LINE SMOOTH",
"351 122 OFFCURVE",
"309 80 OFFCURVE",
"244 80 CURVE SMOOTH"
);
}
);
width = 488;
}
);
leftKerningGroup = C;
rightKerningGroup = O;
unicode = 004F;
},
{
glyphname = P;
lastChange = "2016-11-17 19:22:27 +0000";
layers = (
{
layerId = "262880E7-CFE1-4BDA-902E-E24798F3240A";
paths = (
{
closed = 1;
nodes = (
"79 0 LINE",
"79 680 LINE",
"246 680 LINE SMOOTH",
"326 680 OFFCURVE",
"379 616 OFFCURVE",
"379 520 CURVE SMOOTH",
"379 424 OFFCURVE",
"326 360 OFFCURVE",
"246 360 CURVE SMOOTH",
"74 360 LINE",
"74 340 LINE",
"244 340 LINE SMOOTH",
"338 340 OFFCURVE",
"400 411 OFFCURVE",
"400 520 CURVE SMOOTH",
"400 629 OFFCURVE",
"338 702 OFFCURVE",
"244 702 CURVE SMOOTH",
"56 702 LINE",
"56 0 LINE"
);
}
);
width = 442;
},
{
layerId = "4E2227F3-52E4-4048-A8EE-327B486EF0A4";
paths = (
{
closed = 1;
nodes = (
"210 0 LINE",
"210 530 LINE",
"245 530 LINE SMOOTH",
"277 530 OFFCURVE",
"299 508 OFFCURVE",
"299 476 CURVE SMOOTH",
"299 438 OFFCURVE",
"277 412 OFFCURVE",
"245 412 CURVE SMOOTH",
"194 412 LINE",
"194 247 LINE",
"277 247 LINE SMOOTH",
"403 247 OFFCURVE",
"487 339 OFFCURVE",
"487 476 CURVE SMOOTH",
"487 610 OFFCURVE",
"399 700 OFFCURVE",
"267 700 CURVE SMOOTH",
"22 700 LINE",
"22 0 LINE"
);
}
);
width = 503;
}
);
leftKerningGroup = H;
unicode = 0050;
},
{
glyphname = Q;
lastChange = "2016-11-17 19:24:23 +0000";
layers = (
{
layerId = "262880E7-CFE1-4BDA-902E-E24798F3240A";
paths = (
{
closed = 1;
nodes = (
"313 -9 OFFCURVE",
"379 56 OFFCURVE",
"379 154 CURVE SMOOTH",
"379 546 LINE SMOOTH",
"379 644 OFFCURVE",
"313 709 OFFCURVE",
"214 709 CURVE SMOOTH",
"115 709 OFFCURVE",
"49 644 OFFCURVE",
"49 546 CURVE SMOOTH",
"49 154 LINE SMOOTH",
"49 56 OFFCURVE",
"115 -9 OFFCURVE",
"214 -9 CURVE SMOOTH"
);
},
{
closed = 1;
nodes = (
"343 -51 LINE",
"153 16 LINE",
"153 0 LINE",
"343 -72 LINE"
);
},
{
closed = 1;
nodes = (
"128 12 OFFCURVE",
"71 68 OFFCURVE",
"71 152 CURVE SMOOTH",
"71 548 LINE SMOOTH",
"71 632 OFFCURVE",
"128 688 OFFCURVE",
"214 688 CURVE SMOOTH",
"300 688 OFFCURVE",
"357 632 OFFCURVE",
"357 548 CURVE SMOOTH",
"357 152 LINE SMOOTH",
"357 68 OFFCURVE",
"300 12 OFFCURVE",
"214 12 CURVE SMOOTH"
);
}
);
width = 443;
},
{
layerId = "4E2227F3-52E4-4048-A8EE-327B486EF0A4";
paths = (
{
closed = 1;
nodes = (
"398 -8 OFFCURVE",
"492 81 OFFCURVE",
"492 215 CURVE SMOOTH",
"492 485 LINE SMOOTH",
"492 619 OFFCURVE",
"398 708 OFFCURVE",
"256 708 CURVE SMOOTH",
"114 708 OFFCURVE",
"20 619 OFFCURVE",
"20 485 CURVE SMOOTH",
"20 215 LINE SMOOTH",
"20 81 OFFCURVE",
"114 -8 OFFCURVE",
"256 -8 CURVE SMOOTH"
);
},
{
closed = 1;
nodes = (
"527 119 LINE",
"200 128 LINE",
"231 -7 LINE",
"512 -42 LINE"
);
},
{
closed = 1;
nodes = (
"227 162 OFFCURVE",
"208 182 OFFCURVE",
"208 213 CURVE SMOOTH",
"208 487 LINE SMOOTH",
"208 518 OFFCURVE",
"227 538 OFFCURVE",
"256 538 CURVE SMOOTH",
"285 538 OFFCURVE",
"304 518 OFFCURVE",
"304 487 CURVE SMOOTH",
"304 213 LINE SMOOTH",
"304 182 OFFCURVE",
"285 162 OFFCURVE",
"256 162 CURVE SMOOTH"
);
}
);
width = 527;
},
{
associatedMasterId = "262880E7-CFE1-4BDA-902E-E24798F3240A";
layerId = "657968FF-6B9D-4C67-A4EA-CA88CAD954BC";
name = "{95,100}";
paths = (
{
closed = 1;
nodes = (
"356 -9 OFFCURVE",
"435 67 OFFCURVE",
"435 181 CURVE SMOOTH",
"435 519 LINE SMOOTH",
"435 633 OFFCURVE",
"356 709 OFFCURVE",
"239 709 CURVE SMOOTH",
"121 709 OFFCURVE",
"43 633 OFFCURVE",
"43 519 CURVE SMOOTH",
"43 181 LINE SMOOTH",
"43 67 OFFCURVE",
"121 -9 OFFCURVE",
"239 -9 CURVE SMOOTH"
);
},
{
closed = 1;
nodes = (
"494 31 LINE",
"215 58 LINE",
"206 -7 LINE",
"483 -43 LINE"
);
},
{
closed = 1;
nodes = (
"177 81 OFFCURVE",
"137 122 OFFCURVE",
"137 183 CURVE SMOOTH",
"137 517 LINE SMOOTH",
"137 578 OFFCURVE",
"177 619 OFFCURVE",
"239 619 CURVE SMOOTH",
"300 619 OFFCURVE",
"340 578 OFFCURVE",
"340 517 CURVE SMOOTH",
"340 183 LINE SMOOTH",
"340 122 OFFCURVE",
"300 81 OFFCURVE",
"239 81 CURVE SMOOTH"
);
}
);
width = 488;
}
);
leftKerningGroup = C;
unicode = 0051;
},
{
glyphname = R;
lastChange = "2016-11-17 19:21:45 +0000";
layers = (
{
layerId = "262880E7-CFE1-4BDA-902E-E24798F3240A";
paths = (
{
closed = 1;
nodes = (
"79 0 LINE",
"79 680 LINE",
"250 680 LINE SMOOTH",
"329 680 OFFCURVE",
"382 616 OFFCURVE",
"382 520 CURVE SMOOTH",
"382 424 OFFCURVE",
"329 360 OFFCURVE",
"250 360 CURVE SMOOTH",
"74 360 LINE",
"74 340 LINE",
"248 340 LINE SMOOTH",
"342 340 OFFCURVE",
"404 411 OFFCURVE",
"404 520 CURVE SMOOTH",
"404 629 OFFCURVE",
"342 702 OFFCURVE",
"248 702 CURVE SMOOTH",
"56 702 LINE",
"56 0 LINE"
);
},
{
closed = 1;
nodes = (
"383 0 LINE",
"268 349 LINE",
"250 341 LINE",
"361 0 LINE"
);
}
);
width = 446;
},
{
layerId = "4E2227F3-52E4-4048-A8EE-327B486EF0A4";
paths = (
{
closed = 1;
nodes = (
"210 0 LINE",
"210 530 LINE",
"256 530 LINE SMOOTH",
"290 530 OFFCURVE",
"312 506 OFFCURVE",
"312 469 CURVE SMOOTH",
"312 432 OFFCURVE",
"290 407 OFFCURVE",
"256 407 CURVE SMOOTH",
"194 407 LINE",
"194 254 LINE",
"290 254 LINE SMOOTH",
"416 254 OFFCURVE",
"500 342 OFFCURVE",
"500 474 CURVE SMOOTH",
"500 610 OFFCURVE",
"412 700 OFFCURVE",
"280 700 CURVE SMOOTH",
"22 700 LINE",
"22 0 LINE"
);
},
{
closed = 1;
nodes = (
"503 0 LINE",
"405 335 LINE",
"227 335 LINE",
"309 0 LINE"
);
}
);
width = 515;
},
{
associatedMasterId = "262880E7-CFE1-4BDA-902E-E24798F3240A";
layerId = "BE946EE3-8AE1-439A-A927-2CED285D2AD4";
name = "{95,100}";
paths = (
{
closed = 1;
nodes = (
"142 0 LINE",
"142 615 LINE",
"258 615 LINE SMOOTH",
"318 615 OFFCURVE",
"357 568 OFFCURVE",
"357 498 CURVE SMOOTH",
"357 427 OFFCURVE",
"318 381 OFFCURVE",
"258 381 CURVE SMOOTH",
"132 381 LINE",
"132 297 LINE",
"272 297 LINE SMOOTH",
"380 297 OFFCURVE",
"452 381 OFFCURVE",
"452 500 CURVE SMOOTH",
"452 621 OFFCURVE",
"378 701 OFFCURVE",
"268 701 CURVE SMOOTH",
"47 701 LINE",
"47 0 LINE"
);
},
{
closed = 1;
nodes = (
"441 0 LINE",
"333 343 LINE",
"246 338 LINE",
"344 0 LINE"
);
}
);
width = 478;
}
);
rightKerningGroup = R;
unicode = 0052;
},
{
glyphname = S;
lastChange = "2016-11-17 19:19:45 +0000";
layers = (
{
layerId = "262880E7-CFE1-4BDA-902E-E24798F3240A";
paths = (
{
closed = 1;
nodes = (
"318 -9 OFFCURVE",
"383 49 OFFCURVE",
"383 149 CURVE SMOOTH",
"383 254 OFFCURVE",
"298 307 OFFCURVE",
"215 359 CURVE SMOOTH",
"136 409 OFFCURVE",
"57 457 OFFCURVE",
"57 550 CURVE SMOOTH",
"57 637 OFFCURVE",
"112 688 OFFCURVE",
"206 688 CURVE SMOOTH",
"300 688 OFFCURVE",
"355 636 OFFCURVE",
"355 548 CURVE SMOOTH",
"355 500 LINE",
"377 500 LINE",
"377 549 LINE SMOOTH",
"377 650 OFFCURVE",
"314 709 OFFCURVE",
"206 709 CURVE SMOOTH",
"98 709 OFFCURVE",
"35 651 OFFCURVE",
"35 552 CURVE SMOOTH",
"35 448 OFFCURVE",
"120 395 OFFCURVE",
"201 343 CURVE SMOOTH",
"280 292 OFFCURVE",
"361 243 OFFCURVE",
"361 149 CURVE SMOOTH",
"361 63 OFFCURVE",
"304 12 OFFCURVE",
"207 12 CURVE SMOOTH",
"112 12 OFFCURVE",
"57 63 OFFCURVE",
"57 151 CURVE SMOOTH",
"57 210 LINE",
"37 210 LINE",
"37 150 LINE SMOOTH",
"37 50 OFFCURVE",
"100 -9 OFFCURVE",
"208 -9 CURVE SMOOTH"
);
}
);
width = 418;
},
{
layerId = "4E2227F3-52E4-4048-A8EE-327B486EF0A4";
paths = (
{
closed = 1;
nodes = (
"371 -8 OFFCURVE",
"460 70 OFFCURVE",
"460 187 CURVE SMOOTH",
"460 287 OFFCURVE",
"394 338 OFFCURVE",
"288 412 CURVE SMOOTH",
"221 459 OFFCURVE",
"201 470 OFFCURVE",
"201 500 CURVE SMOOTH",
"201 524 OFFCURVE",
"214 538 OFFCURVE",
"235 538 CURVE SMOOTH",
"256 538 OFFCURVE",
"270 524 OFFCURVE",
"270 504 CURVE SMOOTH",
"270 490 LINE",
"455 490 LINE",
"455 509 LINE SMOOTH",
"455 628 OFFCURVE",
"368 708 OFFCURVE",
"236 708 CURVE SMOOTH",
"103 708 OFFCURVE",
"16 628 OFFCURVE",
"16 510 CURVE SMOOTH",
"16 387 OFFCURVE",
"111 322 OFFCURVE",
"186 272 CURVE SMOOTH",
"259 223 OFFCURVE",
"275 215 OFFCURVE",
"275 194 CURVE SMOOTH",
"275 175 OFFCURVE",
"261 162 OFFCURVE",
"241 162 CURVE SMOOTH",
"220 162 OFFCURVE",
"206 176 OFFCURVE",
"206 198 CURVE SMOOTH",
"206 211 LINE",
"21 211 LINE",
"21 180 LINE SMOOTH",
"21 70 OFFCURVE",
"106 -8 OFFCURVE",
"239 -8 CURVE SMOOTH"
);
}
);
width = 476;
},
{
associatedMasterId = "262880E7-CFE1-4BDA-902E-E24798F3240A";
layerId = "27CF7A20-12ED-41D4-A25C-14FEEBE4A60B";
name = "{95,100}";
paths = (
{
closed = 1;
nodes = (
"350 -9 OFFCURVE",
"426 58 OFFCURVE",
"426 166 CURVE SMOOTH",
"426 268 OFFCURVE",
"349 321 OFFCURVE",
"256 382 CURVE SMOOTH",
"182 431 OFFCURVE",
"129 463 OFFCURVE",
"129 528 CURVE SMOOTH",
"129 584 OFFCURVE",
"166 619 OFFCURVE",
"228 619 CURVE SMOOTH",
"290 619 OFFCURVE",
"327 583 OFFCURVE",
"327 525 CURVE SMOOTH",
"327 496 LINE",
"420 496 LINE",
"420 532 LINE SMOOTH",
"420 640 OFFCURVE",
"347 709 OFFCURVE",
"228 709 CURVE SMOOTH",
"109 709 OFFCURVE",
"36 641 OFFCURVE",
"36 534 CURVE SMOOTH",
"36 421 OFFCURVE",
"125 363 OFFCURVE",
"203 312 CURVE SMOOTH",
"280 262 OFFCURVE",
"332 231 OFFCURVE",
"332 169 CURVE SMOOTH",
"332 116 OFFCURVE",
"294 81 OFFCURVE",
"231 81 CURVE SMOOTH",
"168 81 OFFCURVE",
"131 116 OFFCURVE",
"131 176 CURVE SMOOTH",
"131 210 LINE",
"39 210 LINE",
"39 163 LINE SMOOTH",
"39 59 OFFCURVE",
"112 -9 OFFCURVE",
"231 -9 CURVE SMOOTH"
);
}
);
width = 461;
}
);
leftKerningGroup = S;
rightKerningGroup = S;
unicode = 0053;
},
{
glyphname = T;
lastChange = "2016-11-17 19:10:18 +0000";
layers = (
{
layerId = "262880E7-CFE1-4BDA-902E-E24798F3240A";
paths = (
{
closed = 1;
nodes = (
"214 0 LINE",
"214 689 LINE",
"192 689 LINE",
"192 0 LINE"
);
},
{
closed = 1;
nodes = (
"387 679 LINE",
"387 700 LINE",
"28 700 LINE",
"28 679 LINE"
);
}
);
width = 401;
},
{
layerId = "4E2227F3-52E4-4048-A8EE-327B486EF0A4";
paths = (
{
closed = 1;
nodes = (
"334 0 LINE",
"334 689 LINE",
"146 689 LINE",
"146 0 LINE"
);
},
{
closed = 1;
nodes = (
"476 530 LINE",
"476 700 LINE",
"8 700 LINE",
"8 530 LINE"
);
}
);
width = 480;
},
{
associatedMasterId = "262880E7-CFE1-4BDA-902E-E24798F3240A";
layerId = "B94D5C64-F458-403F-8B9E-4B02C0AC7203";
name = "{95,100}";
paths = (
{
closed = 1;
nodes = (
"262 0 LINE",
"262 689 LINE",
"168 689 LINE",
"168 0 LINE"
);
},
{
closed = 1;
nodes = (
"420 610 LINE",
"420 700 LINE",
"17 700 LINE",
"17 610 LINE"
);
}
);
width = 428;
}
);
leftKerningGroup = T;
rightKerningGroup = T;
unicode = 0054;
},
{
glyphname = U;
lastChange = "2016-11-17 19:19:04 +0000";
layers = (
{
layerId = "262880E7-CFE1-4BDA-902E-E24798F3240A";
paths = (
{
closed = 1;
nodes = (
"326 -9 OFFCURVE",
"396 59 OFFCURVE",
"396 160 CURVE SMOOTH",
"396 700 LINE",
"375 700 LINE",
"375 156 LINE SMOOTH",
"375 70 OFFCURVE",
"313 12 OFFCURVE",
"222 12 CURVE SMOOTH",
"132 12 OFFCURVE",
"71 70 OFFCURVE",
"71 156 CURVE SMOOTH",
"71 700 LINE",
"49 700 LINE",
"49 160 LINE SMOOTH",
"49 59 OFFCURVE",
"119 -9 OFFCURVE",
"222 -9 CURVE SMOOTH"
);
}
);
width = 445;
},
{
layerId = "4E2227F3-52E4-4048-A8EE-327B486EF0A4";
paths = (
{
closed = 1;
nodes = (
"390 -8 OFFCURVE",
"482 77 OFFCURVE",
"482 208 CURVE SMOOTH",
"482 700 LINE",
"294 700 LINE",
"294 208 LINE SMOOTH",
"294 180 OFFCURVE",
"277 162 OFFCURVE",
"252 162 CURVE SMOOTH",
"227 162 OFFCURVE",
"210 180 OFFCURVE",
"210 208 CURVE SMOOTH",
"210 700 LINE",
"22 700 LINE",
"22 208 LINE SMOOTH",
"22 77 OFFCURVE",
"114 -8 OFFCURVE",
"252 -8 CURVE SMOOTH"
);
}
);
width = 504;
},
{
associatedMasterId = "262880E7-CFE1-4BDA-902E-E24798F3240A";
layerId = "A0AE8F4B-DC00-47F8-9374-9C55383FCF6B";
name = "{95,100}";
paths = (
{
closed = 1;
nodes = (
"361 -9 OFFCURVE",
"440 67 OFFCURVE",
"440 181 CURVE SMOOTH",
"440 700 LINE",
"345 700 LINE",
"345 183 LINE SMOOTH",
"345 122 OFFCURVE",
"304 81 OFFCURVE",
"243 81 CURVE SMOOTH",
"182 81 OFFCURVE",
"141 122 OFFCURVE",
"141 183 CURVE SMOOTH",
"141 700 LINE",
"47 700 LINE",
"47 181 LINE SMOOTH",
"47 67 OFFCURVE",
"126 -9 OFFCURVE",
"243 -9 CURVE SMOOTH"
);
}
);
width = 487;
}
);
rightKerningGroup = U;
unicode = 0055;
},
{
glyphname = V;
lastChange = "2016-11-17 19:24:42 +0000";
layers = (
{
layerId = "262880E7-CFE1-4BDA-902E-E24798F3240A";
paths = (
{
closed = 1;
nodes = (
"234 0 LINE",
"425 700 LINE",
"402 700 LINE",
"223 42 LINE",
"43 700 LINE",
"21 700 LINE",
"212 0 LINE"
);
}
);
width = 446;
},
{
layerId = "4E2227F3-52E4-4048-A8EE-327B486EF0A4";
paths = (
{
closed = 1;
nodes = (
"374 0 LINE",
"539 700 LINE",
"341 700 LINE",
"278 305 LINE",
"209 700 LINE",
"6 700 LINE",
"171 0 LINE"
);
}
);
width = 545;
}
);
leftKerningGroup = V;
rightKerningGroup = V;
unicode = 0056;
},
{
glyphname = W;
lastChange = "2016-11-17 19:24:44 +0000";
layers = (
{
layerId = "262880E7-CFE1-4BDA-902E-E24798F3240A";
paths = (
{
closed = 1;
nodes = (
"190 0 LINE",
"331 657 LINE",
"468 0 LINE",
"489 0 LINE",
"639 700 LINE",
"617 700 LINE",
"480 40 LINE",
"339 700 LINE",
"321 700 LINE",
"180 40 LINE",
"43 700 LINE",
"21 700 LINE",
"168 0 LINE"
);
}
);
width = 660;
},
{
layerId = "4E2227F3-52E4-4048-A8EE-327B486EF0A4";
paths = (
{
closed = 1;
nodes = (
"318 0 LINE",
"363 362 LINE",
"417 0 LINE",
"581 0 LINE",
"720 700 LINE",
"527 700 LINE",
"500 342 LINE",
"443 700 LINE",
"278 700 LINE",
"236 342 LINE",
"204 700 LINE",
"6 700 LINE",
"153 0 LINE"
);
}
);
width = 726;
},
{
associatedMasterId = "262880E7-CFE1-4BDA-902E-E24798F3240A";
layerId = "130BD5C2-5A44-42B2-A8B6-C9B87CBC8DB3";
name = "{95,100}";
paths = (
{
closed = 1;
nodes = (
"244 0 LINE",
"343 528 LINE",
"444 0 LINE",
"527 0 LINE",
"673 700 LINE",
"576 700 LINE",
"487 177 LINE",
"383 700 LINE",
"301 700 LINE",
"203 177 LINE",
"112 700 LINE",
"13 700 LINE",
"160 0 LINE"
);
}
);
width = 685;
}
);
leftKerningGroup = V;
rightKerningGroup = V;
unicode = 0057;
},
{
glyphname = X;
lastChange = "2016-11-17 19:08:32 +0000";
layers = (
{
layerId = "262880E7-CFE1-4BDA-902E-E24798F3240A";
paths = (
{
closed = 1;
nodes = (
"46 0 LINE",
"211 330 LINE",
"377 0 LINE",
"402 0 LINE",
"222 349 LINE",
"402 700 LINE",
"377 700 LINE",
"211 369 LINE",
"46 700 LINE",
"21 700 LINE",
"200 350 LINE",
"21 0 LINE"
);
}
);
width = 423;
},
{
layerId = "4E2227F3-52E4-4048-A8EE-327B486EF0A4";
paths = (
{
closed = 1;
nodes = (
"197 0 LINE",
"253 162 LINE",
"308 0 LINE",
"499 0 LINE",
"352 350 LINE",
"499 700 LINE",
"307 700 LINE",
"253 537 LINE",
"198 700 LINE",
"6 700 LINE",
"153 350 LINE",
"6 0 LINE"
);
}
);
width = 505;
}
);
rightKerningGroup = X;
unicode = 0058;
},
{
glyphname = Y;
lastChange = "2016-11-17 19:24:30 +0000";
layers = (
{
layerId = "262880E7-CFE1-4BDA-902E-E24798F3240A";
paths = (
{
closed = 1;
nodes = (
"219 0 LINE",
"219 339 LINE",
"394 700 LINE",
"372 700 LINE",
"208 358 LINE",
"43 700 LINE",
"21 700 LINE",
"197 339 LINE",
"197 0 LINE"
);
}
);
width = 415;
},
{
layerId = "4E2227F3-52E4-4048-A8EE-327B486EF0A4";
paths = (
{
closed = 1;
nodes = (
"356 2 LINE",
"356 287 LINE",
"519 700 LINE",
"321 700 LINE",
"263 492 LINE",
"204 700 LINE",
"6 700 LINE",
"168 287 LINE",
"168 2 LINE"
);
}
);
width = 525;
}
);
leftKerningGroup = Y;
unicode = 0059;
},
{
glyphname = Z;
lastChange = "2016-11-17 19:06:40 +0000";
layers = (
{
layerId = "262880E7-CFE1-4BDA-902E-E24798F3240A";
paths = (
{
closed = 1;
nodes = (
"352 0 LINE",
"352 21 LINE",
"46 21 LINE",
"352 679 LINE",
"352 700 LINE",
"21 700 LINE",
"21 679 LINE",
"328 679 LINE",
"21 21 LINE",
"21 0 LINE"
);
}
);
width = 380;
},
{
layerId = "4E2227F3-52E4-4048-A8EE-327B486EF0A4";
paths = (
{
closed = 1;
nodes = (
"416 0 LINE",
"416 170 LINE",
"202 170 LINE",
"416 530 LINE",
"416 700 LINE",
"6 700 LINE",
"6 530 LINE",
"218 530 LINE",
"6 170 LINE",
"6 0 LINE"
);
}
);
width = 424;
}
);
leftKerningGroup = Z;
rightKerningGroup = Z;
unicode = 005A;
},
{
glyphname = a;
lastChange = "2016-11-17 19:04:20 +0000";
layers = (
{
layerId = "262880E7-CFE1-4BDA-902E-E24798F3240A";
paths = (
{
closed = 1;
nodes = (
"367 0 LINE",
"367 342 LINE SMOOTH",
"367 447 OFFCURVE",
"311 508 OFFCURVE",
"216 508 CURVE SMOOTH",
"119 508 OFFCURVE",
"62 450 OFFCURVE",
"62 352 CURVE SMOOTH",
"62 351 LINE",
"84 351 LINE",
"84 355 LINE SMOOTH",
"84 438 OFFCURVE",
"133 487 OFFCURVE",
"216 487 CURVE SMOOTH",
"297 487 OFFCURVE",
"345 434 OFFCURVE",
"345 345 CURVE SMOOTH",
"345 0 LINE"
);
},
{
closed = 1;
nodes = (
"275 -8 OFFCURVE",
"361 37 OFFCURVE",
"361 142 CURVE",
"361 262 LINE",
"276 262 LINE",
"142 262 OFFCURVE",
"49 239 OFFCURVE",
"49 126 CURVE SMOOTH",
"49 28 OFFCURVE",
"117 -8 OFFCURVE",
"192 -8 CURVE SMOOTH"
);
},
{
closed = 1;
nodes = (
"130 15 OFFCURVE",
"71 43 OFFCURVE",
"71 124 CURVE SMOOTH",
"71 219 OFFCURVE",
"153 241 OFFCURVE",
"276 241 CURVE",
"345 241 LINE",
"345 142 LINE SMOOTH",
"345 54 OFFCURVE",
"265 11 OFFCURVE",
"192 13 CURVE SMOOTH"
);
}
);
width = 430;
},
{
layerId = "4E2227F3-52E4-4048-A8EE-327B486EF0A4";
paths = (
{
closed = 1;
nodes = (
"451 0 LINE",
"451 360 LINE SMOOTH",
"451 461 OFFCURVE",
"364 528 OFFCURVE",
"234 528 CURVE SMOOTH",
"107 528 OFFCURVE",
"20 465 OFFCURVE",
"20 370 CURVE SMOOTH",
"20 339 LINE",
"208 332 LINE",
"208 337 LINE SMOOTH",
"208 355 OFFCURVE",
"219 367 OFFCURVE",
"234 367 CURVE SMOOTH",
"251 367 OFFCURVE",
"263 355 OFFCURVE",
"263 337 CURVE SMOOTH",
"263 0 LINE"
);
},
{
closed = 1;
nodes = (
"252 -7 OFFCURVE",
"352 89 OFFCURVE",
"352 197 CURVE",
"352 313 LINE",
"223 313 LINE",
"97 313 OFFCURVE",
"14 297 OFFCURVE",
"14 151 CURVE SMOOTH",
"14 9 OFFCURVE",
"88 -9 OFFCURVE",
"157 -8 CURVE SMOOTH"
);
},
{
closed = 1;
nodes = (
"218 125 OFFCURVE",
"206 134 OFFCURVE",
"206 153 CURVE SMOOTH",
"206 165 OFFCURVE",
"218 180 OFFCURVE",
"237 180 CURVE",
"263 180 LINE",
"263 152 LINE SMOOTH",
"263 135 OFFCURVE",
"245 125 OFFCURVE",
"231 125 CURVE SMOOTH"
);
}
);
width = 469;
},
{
associatedMasterId = "262880E7-CFE1-4BDA-902E-E24798F3240A";
layerId = "C1D225D7-6ABC-447B-B6D3-D45828173093";
name = "{95,100}";
paths = (
{
closed = 1;
nodes = (
"399 0 LINE",
"399 350 LINE SMOOTH",
"399 453 OFFCURVE",
"331 517 OFFCURVE",
"221 517 CURVE SMOOTH",
"111 517 OFFCURVE",
"42 457 OFFCURVE",
"42 360 CURVE SMOOTH",
"42 346 LINE",
"136 343 LINE",
"136 347 LINE SMOOTH",
"136 402 OFFCURVE",
"167 435 OFFCURVE",
"221 435 CURVE SMOOTH",
"274 435 OFFCURVE",
"304 400 OFFCURVE",
"304 342 CURVE SMOOTH",
"304 0 LINE"
);
},
{
closed = 1;
nodes = (
"267 -8 OFFCURVE",
"343 43 OFFCURVE",
"343 126 CURVE",
"343 290 LINE",
"247 290 LINE",
"118 290 OFFCURVE",
"25 267 OFFCURVE",
"25 140 CURVE SMOOTH",
"25 21 OFFCURVE",
"108 -8 OFFCURVE",
"177 -8 CURVE SMOOTH"
);
},
{
closed = 1;
nodes = (
"162 82 OFFCURVE",
"121 94 OFFCURVE",
"121 142 CURVE SMOOTH",
"121 190 OFFCURVE",
"162 210 OFFCURVE",
"247 210 CURVE",
"304 210 LINE",
"304 154 LINE SMOOTH",
"304 126 OFFCURVE",
"263 82 OFFCURVE",
"200 82 CURVE SMOOTH"
);
}
);
width = 437;
}
);
leftKerningGroup = a;
rightKerningGroup = b;
unicode = 0061;
},
{
glyphname = b;
lastChange = "2016-11-17 19:23:43 +0000";
layers = (
{
components = (
{
name = b.bowl;
transform = "{1, 0, 0, 1, 67, 0}";
}
);
layerId = "262880E7-CFE1-4BDA-902E-E24798F3240A";
paths = (
{
closed = 1;
nodes = (
"85 0 LINE",
"85 700 LINE",
"63 700 LINE",
"63 0 LINE"
);
}
);
width = 426;
},
{
components = (
{
name = b.bowl;
transform = "{1, 0, 0, 1, 169, 0}";
}
);
layerId = "4E2227F3-52E4-4048-A8EE-327B486EF0A4";
paths = (
{
closed = 1;
nodes = (
"206 0 LINE",
"206 700 LINE",
"18 700 LINE",
"18 0 LINE"
);
}
);
width = 466;
}
);
leftKerningGroup = b;
rightKerningGroup = n;
unicode = 0062;
},
{
glyphname = c;
lastChange = "2016-11-17 19:18:36 +0000";
layers = (
{
layerId = "262880E7-CFE1-4BDA-902E-E24798F3240A";
paths = (
{
closed = 1;
nodes = (
"303 -8 OFFCURVE",
"366 58 OFFCURVE",
"366 138 CURVE SMOOTH",
"366 139 LINE",
"344 139 LINE",
"344 135 LINE SMOOTH",
"344 70 OFFCURVE",
"289 13 OFFCURVE",
"208 13 CURVE SMOOTH",
"126 13 OFFCURVE",
"71 70 OFFCURVE",
"71 155 CURVE SMOOTH",
"71 345 LINE SMOOTH",
"71 430 OFFCURVE",
"126 487 OFFCURVE",
"208 487 CURVE SMOOTH",
"289 487 OFFCURVE",
"344 430 OFFCURVE",
"344 365 CURVE SMOOTH",
"344 361 LINE",
"366 361 LINE",
"366 362 LINE SMOOTH",
"366 442 OFFCURVE",
"303 508 OFFCURVE",
"208 508 CURVE SMOOTH",
"112 508 OFFCURVE",
"49 442 OFFCURVE",
"49 342 CURVE SMOOTH",
"49 158 LINE SMOOTH",
"49 58 OFFCURVE",
"112 -8 OFFCURVE",
"208 -8 CURVE SMOOTH"
);
}
);
width = 408;
},
{
layerId = "4E2227F3-52E4-4048-A8EE-327B486EF0A4";
paths = (
{
closed = 1;
nodes = (
"366 -7 OFFCURVE",
"454 59 OFFCURVE",
"454 172 CURVE SMOOTH",
"454 223 LINE",
"266 223 LINE",
"266 185 LINE SMOOTH",
"266 166 OFFCURVE",
"253 153 OFFCURVE",
"234 153 CURVE SMOOTH",
"215 153 OFFCURVE",
"202 166 OFFCURVE",
"202 185 CURVE SMOOTH",
"202 335 LINE SMOOTH",
"202 354 OFFCURVE",
"215 367 OFFCURVE",
"234 367 CURVE SMOOTH",
"253 367 OFFCURVE",
"266 354 OFFCURVE",
"266 335 CURVE SMOOTH",
"266 294 LINE",
"454 294 LINE",
"454 348 LINE SMOOTH",
"454 462 OFFCURVE",
"366 528 OFFCURVE",
"234 528 CURVE SMOOTH",
"102 528 OFFCURVE",
"14 462 OFFCURVE",
"14 348 CURVE SMOOTH",
"14 172 LINE SMOOTH",
"14 59 OFFCURVE",
"102 -7 OFFCURVE",
"234 -7 CURVE SMOOTH"
);
}
);
width = 466;
},
{
associatedMasterId = "262880E7-CFE1-4BDA-902E-E24798F3240A";
layerId = "ACF168AC-FE90-447F-BF07-96C78B49E18D";
name = "{95,100}";
paths = (
{
closed = 1;
nodes = (
"327 -8 OFFCURVE",
"400 58 OFFCURVE",
"400 153 CURVE SMOOTH",
"400 176 LINE",
"306 176 LINE",
"306 165 LINE SMOOTH",
"306 120 OFFCURVE",
"269 82 OFFCURVE",
"215 82 CURVE SMOOTH",
"161 82 OFFCURVE",
"124 120 OFFCURVE",
"124 176 CURVE SMOOTH",
"124 333 LINE SMOOTH",
"124 389 OFFCURVE",
"161 427 OFFCURVE",
"215 427 CURVE SMOOTH",
"269 427 OFFCURVE",
"306 389 OFFCURVE",
"306 344 CURVE SMOOTH",
"306 332 LINE",
"400 332 LINE",
"400 356 LINE SMOOTH",
"400 451 OFFCURVE",
"327 517 OFFCURVE",
"215 517 CURVE SMOOTH",
"104 517 OFFCURVE",
"30 451 OFFCURVE",
"30 345 CURVE SMOOTH",
"30 164 LINE SMOOTH",
"30 58 OFFCURVE",
"104 -8 OFFCURVE",
"215 -8 CURVE SMOOTH"
);
}
);
width = 426;
}
);
leftKerningGroup = o;
rightKerningGroup = c;
unicode = 0063;
},
{
glyphname = e;
lastChange = "2016-11-17 19:04:20 +0000";
layers = (
{
layerId = "262880E7-CFE1-4BDA-902E-E24798F3240A";
paths = (
{
closed = 1;
nodes = (
"305 -8 OFFCURVE",
"368 54 OFFCURVE",
"368 148 CURVE SMOOTH",
"368 149 LINE",
"346 149 LINE",
"346 145 LINE SMOOTH",
"346 66 OFFCURVE",
"291 13 OFFCURVE",
"209 13 CURVE SMOOTH",
"126 13 OFFCURVE",
"71 70 OFFCURVE",
"71 155 CURVE SMOOTH",
"71 345 LINE SMOOTH",
"71 430 OFFCURVE",
"126 487 OFFCURVE",
"208 487 CURVE SMOOTH",
"291 487 OFFCURVE",
"346 430 OFFCURVE",
"346 345 CURVE SMOOTH",
"346 262 LINE",
"61 262 LINE",
"61 241 LINE",
"368 241 LINE",
"368 342 LINE SMOOTH",
"368 442 OFFCURVE",
"305 508 OFFCURVE",
"208 508 CURVE SMOOTH",
"112 508 OFFCURVE",
"49 442 OFFCURVE",
"49 342 CURVE SMOOTH",
"49 158 LINE SMOOTH",
"49 58 OFFCURVE",
"112 -8 OFFCURVE",
"209 -8 CURVE SMOOTH"
);
}
);
width = 417;
},
{
layerId = "4E2227F3-52E4-4048-A8EE-327B486EF0A4";
paths = (
{
closed = 1;
nodes = (
"366 -7 OFFCURVE",
"454 59 OFFCURVE",
"454 172 CURVE SMOOTH",
"454 199 LINE",
"266 199 LINE",
"266 185 LINE SMOOTH",
"266 166 OFFCURVE",
"253 153 OFFCURVE",
"234 153 CURVE SMOOTH",
"215 153 OFFCURVE",
"202 166 OFFCURVE",
"202 185 CURVE SMOOTH",
"202 335 LINE SMOOTH",
"202 354 OFFCURVE",
"215 367 OFFCURVE",
"234 367 CURVE SMOOTH",
"253 367 OFFCURVE",
"266 354 OFFCURVE",
"266 335 CURVE SMOOTH",
"266 305 LINE",
"130 305 LINE",
"130 229 LINE",
"454 229 LINE",
"454 348 LINE SMOOTH",
"454 462 OFFCURVE",
"366 528 OFFCURVE",
"234 528 CURVE SMOOTH",
"102 528 OFFCURVE",
"14 462 OFFCURVE",
"14 348 CURVE SMOOTH",
"14 172 LINE SMOOTH",
"14 59 OFFCURVE",
"102 -7 OFFCURVE",
"234 -7 CURVE SMOOTH"
);
}
);
width = 468;
},
{
associatedMasterId = "262880E7-CFE1-4BDA-902E-E24798F3240A";
layerId = "97C22096-986C-4BA2-9F55-2CF144B537C3";
name = "{95,100}";
paths = (
{
closed = 1;
nodes = (
"328 -8 OFFCURVE",
"402 56 OFFCURVE",
"402 158 CURVE SMOOTH",
"402 171 LINE",
"307 171 LINE",
"307 170 LINE SMOOTH",
"307 118 OFFCURVE",
"270 82 OFFCURVE",
"216 82 CURVE SMOOTH",
"161 82 OFFCURVE",
"124 120 OFFCURVE",
"124 176 CURVE SMOOTH",
"124 333 LINE SMOOTH",
"124 389 OFFCURVE",
"161 427 OFFCURVE",
"215 427 CURVE SMOOTH",
"270 427 OFFCURVE",
"307 389 OFFCURVE",
"307 333 CURVE SMOOTH",
"307 297 LINE",
"87 297 LINE",
"87 226 LINE",
"402 226 LINE",
"402 345 LINE SMOOTH",
"402 451 OFFCURVE",
"328 517 OFFCURVE",
"215 517 CURVE SMOOTH",
"104 517 OFFCURVE",
"30 451 OFFCURVE",
"30 345 CURVE SMOOTH",
"30 164 LINE SMOOTH",
"30 58 OFFCURVE",
"104 -8 OFFCURVE",
"216 -8 CURVE SMOOTH"
);
}
);
width = 431;
}
);
leftKerningGroup = o;
rightKerningGroup = o;
unicode = 0065;
},
{
glyphname = f;
lastChange = "2016-11-17 19:23:44 +0000";
layers = (
{
layerId = "262880E7-CFE1-4BDA-902E-E24798F3240A";
paths = (
{
closed = 1;
nodes = (
"106 0 LINE",
"106 550 LINE SMOOTH",
"106 637 OFFCURVE",
"134 689 OFFCURVE",
"244 689 CURVE",
"244 710 LINE",
"120 710 OFFCURVE",
"84 650 OFFCURVE",
"84 550 CURVE SMOOTH",
"84 0 LINE"
);
},
{
closed = 1;
nodes = (
"216 479 LINE",
"216 500 LINE",
"11 500 LINE",
"11 479 LINE"
);
}
);
width = 244;
},
{
layerId = "4E2227F3-52E4-4048-A8EE-327B486EF0A4";
paths = (
{
closed = 1;
nodes = (
"233 0 LINE",
"233 539 LINE",
"233 557 OFFCURVE",
"247 572 OFFCURVE",
"277 575 CURVE",
"277 700 LINE",
"129 707 OFFCURVE",
"45 683 OFFCURVE",
"45 556 CURVE",
"45 0 LINE"
);
},
{
closed = 1;
nodes = (
"297 360 LINE",
"297 520 LINE",
"0 520 LINE",
"0 360 LINE"
);
}
);
width = 305;
},
{
associatedMasterId = "262880E7-CFE1-4BDA-902E-E24798F3240A";
layerId = "C2F74522-438E-462A-BECA-EA0F38E71471";
name = "{95,100}";
paths = (
{
closed = 1;
nodes = (
"159 0 LINE",
"159 524 LINE SMOOTH",
"159 600 OFFCURVE",
"177 615 OFFCURVE",
"257 617 CURVE",
"257 706 LINE",
"117 709 OFFCURVE",
"64 664 OFFCURVE",
"64 553 CURVE SMOOTH",
"64 0 LINE"
);
},
{
closed = 1;
nodes = (
"249 420 LINE",
"249 510 LINE",
"0 510 LINE",
"0 420 LINE"
);
}
);
width = 267;
}
);
leftKerningGroup = t;
unicode = 0066;
},
{
glyphname = g;
lastChange = "2016-11-17 19:04:21 +0000";
layers = (
{
components = (
{
name = b.bowl;
transform = "{-1, 0, 0, 1, 373, 0}";
}
);
layerId = "262880E7-CFE1-4BDA-902E-E24798F3240A";
paths = (
{
closed = 1;
nodes = (
"310 -203 OFFCURVE",
"378 -137 OFFCURVE",
"378 0 CURVE SMOOTH",
"378 500 LINE",
"355 500 LINE",
"355 0 LINE SMOOTH",
"355 -123 OFFCURVE",
"295 -182 OFFCURVE",
"184 -178 CURVE",
"184 -199 LINE"
);
}
);
width = 441;
},
{
components = (
{
name = b.bowl;
transform = "{-1, 0, 0, 1, 301, 0}";
}
);
layerId = "4E2227F3-52E4-4048-A8EE-327B486EF0A4";
paths = (
{
closed = 1;
nodes = (
"395 -226 OFFCURVE",
"452 -115 OFFCURVE",
"452 34 CURVE SMOOTH",
"452 520 LINE",
"264 520 LINE",
"264 34 LINE SMOOTH",
"264 -14 OFFCURVE",
"247 -47 OFFCURVE",
"103 -43 CURVE",
"103 -207 LINE"
);
}
);
width = 470;
}
);
leftKerningGroup = d;
rightKerningGroup = g;
unicode = 0067;
},
{
glyphname = h;
lastChange = "2016-11-17 19:04:20 +0000";
layers = (
{
components = (
{
name = n.curve;
transform = "{1, 0, 0, 1, 68, 0}";
}
);
layerId = "262880E7-CFE1-4BDA-902E-E24798F3240A";
paths = (
{
closed = 1;
nodes = (
"85 0 LINE",
"85 700 LINE",
"63 700 LINE",
"63 0 LINE"
);
}
);
width = 422;
},
{
components = (
{
name = n.curve;
transform = "{1, 0, 0, 1, 169, 0}";
}
);
layerId = "4E2227F3-52E4-4048-A8EE-327B486EF0A4";
paths = (
{
closed = 1;
nodes = (
"206 0 LINE",
"206 700 LINE",
"18 700 LINE",
"18 0 LINE"
);
}
);
width = 466;
}
);
leftKerningGroup = b;
rightKerningGroup = n;
unicode = 0068;
},
{
glyphname = i;
lastChange = "2016-11-17 19:23:43 +0000";
layers = (
{
layerId = "262880E7-CFE1-4BDA-902E-E24798F3240A";
paths = (
{
closed = 1;
nodes = (
"85 0 LINE",
"85 500 LINE",
"63 500 LINE",
"63 0 LINE"
);
},
{
closed = 1;
nodes = (
"90 660 OFFCURVE",
"103 673 OFFCURVE",
"103 690 CURVE SMOOTH",
"103 706 OFFCURVE",
"90 719 OFFCURVE",
"74 719 CURVE SMOOTH",
"57 719 OFFCURVE",
"44 706 OFFCURVE",
"44 690 CURVE SMOOTH",
"44 673 OFFCURVE",
"57 660 OFFCURVE",
"74 660 CURVE SMOOTH"
);
}
);
width = 148;
},
{
layerId = "4E2227F3-52E4-4048-A8EE-327B486EF0A4";
paths = (
{
closed = 1;
nodes = (
"208 0 LINE",
"208 520 LINE",
"20 520 LINE",
"20 0 LINE"
);
},
{
closed = 1;
nodes = (
"177 540 OFFCURVE",
"219 582 OFFCURVE",
"219 645 CURVE SMOOTH",
"219 708 OFFCURVE",
"177 750 OFFCURVE",
"114 750 CURVE SMOOTH",
"51 750 OFFCURVE",
"9 708 OFFCURVE",
"9 645 CURVE SMOOTH",
"9 582 OFFCURVE",
"51 540 OFFCURVE",
"114 540 CURVE SMOOTH"
);
}
);
width = 228;
}
);
leftKerningGroup = i;
unicode = 0069;
},
{
glyphname = j;
lastChange = "2016-11-17 19:04:20 +0000";
layers = (
{
layerId = "262880E7-CFE1-4BDA-902E-E24798F3240A";
paths = (
{
closed = 1;
nodes = (
"58 -211 OFFCURVE",
"106 -159 OFFCURVE",
"106 -74 CURVE SMOOTH",
"106 500 LINE",
"84 500 LINE",
"84 -74 LINE SMOOTH",
"84 -146 OFFCURVE",
"44 -190 OFFCURVE",
"-22 -190 CURVE",
"-22 -211 LINE"
);
},
{
closed = 1;
nodes = (
"113 660 OFFCURVE",
"124 671 OFFCURVE",
"124 690 CURVE SMOOTH",
"124 709 OFFCURVE",
"113 719 OFFCURVE",
"95 719 CURVE SMOOTH",
"77 719 OFFCURVE",
"65 709 OFFCURVE",
"65 690 CURVE SMOOTH",
"65 671 OFFCURVE",
"77 660 OFFCURVE",
"95 660 CURVE SMOOTH"
);
}
);
width = 176;
},
{
layerId = "4E2227F3-52E4-4048-A8EE-327B486EF0A4";
paths = (
{
closed = 1;
nodes = (
"205 -210 OFFCURVE",
"212 -120 OFFCURVE",
"212 29 CURVE SMOOTH",
"212 520 LINE",
"24 520 LINE",
"24 29 LINE SMOOTH",
"24 -19 OFFCURVE",
"7 -49 OFFCURVE",
"-77 -41 CURVE",
"-77 -201 LINE"
);
},
{
closed = 1;
nodes = (
"180 540 OFFCURVE",
"223 587 OFFCURVE",
"223 645 CURVE SMOOTH",
"223 703 OFFCURVE",
"171 749 OFFCURVE",
"118 749 CURVE SMOOTH",
"65 749 OFFCURVE",
"13 703 OFFCURVE",
"13 645 CURVE SMOOTH",
"13 587 OFFCURVE",
"56 540 OFFCURVE",
"118 540 CURVE SMOOTH"
);
}
);
width = 232;
}
);
leftKerningGroup = j;
unicode = 006A;
},
{
glyphname = k;
lastChange = "2016-11-17 19:12:56 +0000";
layers = (
{
guideLines = (
{
angle = 180;
position = "{263, 0}";
showMeasurement = 1;
},
{
angle = 180;
position = "{209, 332}";
showMeasurement = 1;
}
);
layerId = "262880E7-CFE1-4BDA-902E-E24798F3240A";
paths = (
{
closed = 1;
nodes = (
"353 0 LINE",
"170 305 LINE",
"157 286 LINE",
"329 0 LINE"
);
},
{
closed = 1;
nodes = (
"355 500 LINE",
"331 500 LINE",
"83 217 LINE",
"83 191 LINE"
);
},
{
closed = 1;
nodes = (
"92 0 LINE",
"92 700 LINE",
"70 700 LINE",
"70 0 LINE"
);
}
);
width = 376;
},
{
layerId = "4E2227F3-52E4-4048-A8EE-327B486EF0A4";
paths = (
{
closed = 1;
nodes = (
"482 0 LINE",
"282 338 LINE",
"128 315 LINE",
"282 0 LINE"
);
},
{
closed = 1;
nodes = (
"474 520 LINE",
"261 520 LINE",
"181 355 LINE",
"186 122 LINE"
);
},
{
closed = 1;
nodes = (
"208 0 LINE",
"208 700 LINE",
"20 700 LINE",
"20 0 LINE"
);
}
);
width = 488;
}
);
leftKerningGroup = b;
rightKerningGroup = k;
unicode = 006B;
},
{
glyphname = l;
lastChange = "2016-11-17 19:04:20 +0000";
layers = (
{
layerId = "262880E7-CFE1-4BDA-902E-E24798F3240A";
paths = (
{
closed = 1;
nodes = (
"92 0 LINE",
"92 700 LINE",
"70 700 LINE",
"70 0 LINE"
);
}
);
width = 162;
},
{
layerId = "4E2227F3-52E4-4048-A8EE-327B486EF0A4";
paths = (
{
closed = 1;
nodes = (
"208 0 LINE",
"208 700 LINE",
"20 700 LINE",
"20 0 LINE"
);
}
);
width = 228;
}
);
leftKerningGroup = l;
rightKerningGroup = l;
unicode = 006C;
},
{
glyphname = m;
lastChange = "2016-11-17 19:04:20 +0000";
layers = (
{
layerId = "262880E7-CFE1-4BDA-902E-E24798F3240A";
paths = (
{
closed = 1;
nodes = (
"642 0 LINE",
"642 344 LINE SMOOTH",
"642 443 OFFCURVE",
"587 504 OFFCURVE",
"499 504 CURVE SMOOTH",
"405 504 OFFCURVE",
"346 443 OFFCURVE",
"346 343 CURVE",
"364 343 LINE",
"363 428 OFFCURVE",
"413 483 OFFCURVE",
"496 483 CURVE SMOOTH",
"573 483 OFFCURVE",
"620 429 OFFCURVE",
"620 341 CURVE SMOOTH",
"620 0 LINE"
);
},
{
closed = 1;
nodes = (
"364 0 LINE",
"364 344 LINE SMOOTH",
"364 443 OFFCURVE",
"309 504 OFFCURVE",
"220 504 CURVE SMOOTH",
"126 504 OFFCURVE",
"68 443 OFFCURVE",
"68 343 CURVE",
"85 343 LINE",
"85 430 OFFCURVE",
"136 483 OFFCURVE",
"218 483 CURVE SMOOTH",
"294 483 OFFCURVE",
"341 429 OFFCURVE",
"341 341 CURVE SMOOTH",
"341 0 LINE"
);
},
{
closed = 1;
nodes = (
"85 0 LINE",
"85 500 LINE",
"63 500 LINE",
"63 0 LINE"
);
}
);
width = 691;
},
{
layerId = "4E2227F3-52E4-4048-A8EE-327B486EF0A4";
paths = (
{
closed = 1;
nodes = (
"698 0 LINE",
"698 348 LINE SMOOTH",
"698 459 OFFCURVE",
"654 528 OFFCURVE",
"549 528 CURVE SMOOTH",
"506 528 OFFCURVE",
"411 521 OFFCURVE",
"415 323 CURVE",
"452 323 LINE",
"452 343 OFFCURVE",
"464 356 OFFCURVE",
"481 356 CURVE SMOOTH",
"498 356 OFFCURVE",
"510 343 OFFCURVE",
"510 323 CURVE SMOOTH",
"510 0 LINE"
);
},
{
closed = 1;
nodes = (
"452 0 LINE",
"452 348 LINE SMOOTH",
"452 459 OFFCURVE",
"408 528 OFFCURVE",
"303 528 CURVE SMOOTH",
"260 528 OFFCURVE",
"165 521 OFFCURVE",
"169 323 CURVE",
"206 323 LINE",
"206 343 OFFCURVE",
"218 356 OFFCURVE",
"235 356 CURVE SMOOTH",
"252 356 OFFCURVE",
"264 343 OFFCURVE",
"264 323 CURVE SMOOTH",
"264 0 LINE"
);
},
{
closed = 1;
nodes = (
"206 0 LINE",
"206 520 LINE",
"18 520 LINE",
"18 0 LINE"
);
}
);
width = 712;
}
);
leftKerningGroup = n;
rightKerningGroup = h;
unicode = 006D;
},
{
glyphname = n;
lastChange = "2016-11-17 19:23:44 +0000";
layers = (
{
components = (
{
name = n.curve;
transform = "{1, 0, 0, 1, 68, 0}";
}
);
layerId = "262880E7-CFE1-4BDA-902E-E24798F3240A";
paths = (
{
closed = 1;
nodes = (
"85 0 LINE",
"85 500 LINE",
"63 500 LINE",
"63 0 LINE"
);
}
);
width = 422;
},
{
components = (
{
name = n.curve;
transform = "{1, 0, 0, 1, 169, 0}";
}
);
layerId = "4E2227F3-52E4-4048-A8EE-327B486EF0A4";
paths = (
{
closed = 1;
nodes = (
"206 0 LINE",
"206 520 LINE",
"18 520 LINE",
"18 0 LINE"
);
}
);
width = 466;
}
);
leftKerningGroup = n;
rightKerningGroup = n;
unicode = 006E;
},
{
glyphname = o;
lastChange = "2016-11-17 19:15:26 +0000";
layers = (
{
guideLines = (
{
angle = 180;
position = "{217, 250}";
showMeasurement = 1;
},
{
angle = 120;
position = "{217, 250}";
showMeasurement = 1;
},
{
angle = 60;
position = "{217, 250}";
showMeasurement = 1;
}
);
layerId = "262880E7-CFE1-4BDA-902E-E24798F3240A";
paths = (
{
closed = 1;
nodes = (
"298 -8 OFFCURVE",
"361 58 OFFCURVE",
"361 158 CURVE SMOOTH",
"361 342 LINE SMOOTH",
"361 442 OFFCURVE",
"298 508 OFFCURVE",
"201 508 CURVE SMOOTH",
"105 508 OFFCURVE",
"42 442 OFFCURVE",
"42 342 CURVE SMOOTH",
"42 158 LINE SMOOTH",
"42 58 OFFCURVE",
"105 -8 OFFCURVE",
"201 -8 CURVE SMOOTH"
);
},
{
closed = 1;
nodes = (
"119 13 OFFCURVE",
"64 70 OFFCURVE",
"64 155 CURVE SMOOTH",
"64 345 LINE SMOOTH",
"64 430 OFFCURVE",
"119 487 OFFCURVE",
"201 487 CURVE SMOOTH",
"284 487 OFFCURVE",
"339 430 OFFCURVE",
"339 345 CURVE SMOOTH",
"339 155 LINE SMOOTH",
"339 70 OFFCURVE",
"284 13 OFFCURVE",
"201 13 CURVE SMOOTH"
);
}
);
width = 403;
},
{
layerId = "4E2227F3-52E4-4048-A8EE-327B486EF0A4";
paths = (
{
closed = 1;
nodes = (
"364 -7 OFFCURVE",
"452 59 OFFCURVE",
"452 172 CURVE SMOOTH",
"452 348 LINE SMOOTH",
"452 462 OFFCURVE",
"364 532 OFFCURVE",
"232 532 CURVE SMOOTH",
"100 532 OFFCURVE",
"12 462 OFFCURVE",
"12 348 CURVE SMOOTH",
"12 172 LINE SMOOTH",
"12 59 OFFCURVE",
"100 -7 OFFCURVE",
"232 -7 CURVE SMOOTH"
);
},
{
closed = 1;
nodes = (
"213 153 OFFCURVE",
"200 166 OFFCURVE",
"200 185 CURVE SMOOTH",
"200 335 LINE SMOOTH",
"200 354 OFFCURVE",
"213 367 OFFCURVE",
"232 367 CURVE SMOOTH",
"251 367 OFFCURVE",
"264 354 OFFCURVE",
"264 335 CURVE SMOOTH",
"264 185 LINE SMOOTH",
"264 166 OFFCURVE",
"251 153 OFFCURVE",
"232 153 CURVE SMOOTH"
);
}
);
width = 464;
},
{
associatedMasterId = "262880E7-CFE1-4BDA-902E-E24798F3240A";
guideLines = (
{
angle = 180;
position = "{227, 250}";
showMeasurement = 1;
},
{
angle = 120;
position = "{227, 250}";
showMeasurement = 1;
},
{
angle = 60;
position = "{227, 250}";
showMeasurement = 1;
}
);
layerId = "DDD177BB-467D-491E-BE2C-0301FA3F2D98";
name = "{95,100}";
paths = (
{
closed = 1;
nodes = (
"323 -8 OFFCURVE",
"397 58 OFFCURVE",
"397 164 CURVE SMOOTH",
"397 345 LINE SMOOTH",
"397 451 OFFCURVE",
"323 518 OFFCURVE",
"211 518 CURVE SMOOTH",
"99 518 OFFCURVE",
"26 451 OFFCURVE",
"26 345 CURVE SMOOTH",
"26 164 LINE SMOOTH",
"26 58 OFFCURVE",
"99 -8 OFFCURVE",
"211 -8 CURVE SMOOTH"
);
},
{
closed = 1;
nodes = (
"157 82 OFFCURVE",
"120 120 OFFCURVE",
"120 176 CURVE SMOOTH",
"120 334 LINE SMOOTH",
"120 390 OFFCURVE",
"157 428 OFFCURVE",
"211 428 CURVE SMOOTH",
"266 428 OFFCURVE",
"303 390 OFFCURVE",
"303 334 CURVE SMOOTH",
"303 176 LINE SMOOTH",
"303 120 OFFCURVE",
"266 82 OFFCURVE",
"211 82 CURVE SMOOTH"
);
}
);
width = 423;
}
);
leftKerningGroup = o;
rightKerningGroup = o;
unicode = 006F;
},
{
glyphname = r;
lastChange = "2016-11-17 19:04:20 +0000";
layers = (
{
layerId = "262880E7-CFE1-4BDA-902E-E24798F3240A";
paths = (
{
closed = 1;
nodes = (
"85 331 LINE",
"85 419 OFFCURVE",
"138 479 OFFCURVE",
"213 479 CURVE SMOOTH",
"237 479 OFFCURVE",
"251 474 OFFCURVE",
"265 466 CURVE",
"275 489 LINE",
"259 498 OFFCURVE",
"243 504 OFFCURVE",
"215 504 CURVE SMOOTH",
"127 504 OFFCURVE",
"70 438 OFFCURVE",
"70 331 CURVE"
);
},
{
closed = 1;
nodes = (
"85 0 LINE",
"85 500 LINE",
"63 500 LINE",
"63 0 LINE"
);
}
);
width = 296;
},
{
layerId = "4E2227F3-52E4-4048-A8EE-327B486EF0A4";
paths = (
{
closed = 1;
nodes = (
"206 273 LINE",
"206 294 OFFCURVE",
"221 318 OFFCURVE",
"244 327 CURVE SMOOTH",
"270 337 OFFCURVE",
"309 333 OFFCURVE",
"319 325 CURVE",
"351 499 LINE",
"347 507 OFFCURVE",
"328 527 OFFCURVE",
"288 527 CURVE SMOOTH",
"212 527 OFFCURVE",
"155 443 OFFCURVE",
"155 273 CURVE"
);
},
{
closed = 1;
nodes = (
"206 1 LINE",
"206 520 LINE",
"18 520 LINE",
"18 1 LINE"
);
}
);
width = 351;
}
);
leftKerningGroup = n;
rightKerningGroup = r;
unicode = 0072;
},
{
glyphname = s;
lastChange = "2016-11-17 19:20:53 +0000";
layers = (
{
layerId = "262880E7-CFE1-4BDA-902E-E24798F3240A";
paths = (
{
closed = 1;
nodes = (
"297 -4 OFFCURVE",
"353 43 OFFCURVE",
"353 123 CURVE SMOOTH",
"353 211 OFFCURVE",
"285 231 OFFCURVE",
"200 263 CURVE SMOOTH",
"115 295 OFFCURVE",
"73 317 OFFCURVE",
"73 378 CURVE SMOOTH",
"73 443 OFFCURVE",
"120 483 OFFCURVE",
"199 483 CURVE SMOOTH",
"281 483 OFFCURVE",
"329 441 OFFCURVE",
"329 369 CURVE SMOOTH",
"329 344 LINE",
"351 344 LINE",
"351 369 LINE SMOOTH",
"351 454 OFFCURVE",
"295 504 OFFCURVE",
"200 504 CURVE SMOOTH",
"106 504 OFFCURVE",
"51 456 OFFCURVE",
"51 378 CURVE SMOOTH",
"51 295 OFFCURVE",
"112 273 OFFCURVE",
"195 242 CURVE SMOOTH",
"283 209 OFFCURVE",
"331 189 OFFCURVE",
"331 123 CURVE SMOOTH",
"331 57 OFFCURVE",
"283 17 OFFCURVE",
"202 17 CURVE SMOOTH",
"120 17 OFFCURVE",
"71 57 OFFCURVE",
"71 126 CURVE SMOOTH",
"71 157 LINE",
"49 157 LINE",
"49 126 LINE SMOOTH",
"49 44 OFFCURVE",
"106 -4 OFFCURVE",
"202 -4 CURVE SMOOTH"
);
}
);
width = 402;
},
{
layerId = "4E2227F3-52E4-4048-A8EE-327B486EF0A4";
paths = (
{
closed = 1;
nodes = (
"367 -8 OFFCURVE",
"443 48 OFFCURVE",
"443 137 CURVE SMOOTH",
"443 221 OFFCURVE",
"389 271 OFFCURVE",
"277 304 CURVE SMOOTH",
"226 319 OFFCURVE",
"199 325 OFFCURVE",
"199 344 CURVE SMOOTH",
"199 355 OFFCURVE",
"207 363 OFFCURVE",
"226 363 CURVE SMOOTH",
"246 363 OFFCURVE",
"256 354 OFFCURVE",
"256 337 CURVE SMOOTH",
"256 336 LINE",
"431 336 LINE",
"431 336 LINE SMOOTH",
"431 463 OFFCURVE",
"362 528 OFFCURVE",
"225 528 CURVE SMOOTH",
"86 528 OFFCURVE",
"19 466 OFFCURVE",
"19 368 CURVE SMOOTH",
"19 281 OFFCURVE",
"70 221 OFFCURVE",
"180 195 CURVE SMOOTH",
"231 183 OFFCURVE",
"248 168 OFFCURVE",
"248 155 CURVE SMOOTH",
"248 145 OFFCURVE",
"240 139 OFFCURVE",
"223 139 CURVE SMOOTH",
"202 139 OFFCURVE",
"193 150 OFFCURVE",
"193 165 CURVE SMOOTH",
"193 166 LINE",
"14 166 LINE",
"14 166 LINE",
"14 49 OFFCURVE",
"76 -8 OFFCURVE",
"230 -8 CURVE SMOOTH"
);
}
);
width = 457;
},
{
associatedMasterId = "262880E7-CFE1-4BDA-902E-E24798F3240A";
layerId = "2F89E25A-9421-408A-A71F-A73137EE6AE7";
name = "{95,100}";
paths = (
{
closed = 1;
nodes = (
"327 -6 OFFCURVE",
"388 57 OFFCURVE",
"388 139 CURVE SMOOTH",
"388 234 OFFCURVE",
"307 265 OFFCURVE",
"235 289 CURVE SMOOTH",
"177 308 OFFCURVE",
"124 322 OFFCURVE",
"124 366 CURVE SMOOTH",
"124 400 OFFCURVE",
"154 424 OFFCURVE",
"206 424 CURVE SMOOTH",
"262 424 OFFCURVE",
"293 396 OFFCURVE",
"293 348 CURVE SMOOTH",
"293 341 LINE",
"382 341 LINE",
"382 355 LINE SMOOTH",
"382 458 OFFCURVE",
"318 514 OFFCURVE",
"210 514 CURVE SMOOTH",
"93 514 OFFCURVE",
"33 448 OFFCURVE",
"33 365 CURVE SMOOTH",
"33 259 OFFCURVE",
"131 238 OFFCURVE",
"195 218 CURVE SMOOTH",
"251 201 OFFCURVE",
"291 182 OFFCURVE",
"291 142 CURVE SMOOTH",
"291 106 OFFCURVE",
"260 84 OFFCURVE",
"209 84 CURVE SMOOTH",
"151 84 OFFCURVE",
"120 112 OFFCURVE",
"120 157 CURVE SMOOTH",
"120 161 LINE",
"30 161 LINE",
"30 143 LINE SMOOTH",
"30 46 OFFCURVE",
"92 -6 OFFCURVE",
"204 -6 CURVE SMOOTH"
);
}
);
width = 418;
}
);
leftKerningGroup = s;
rightKerningGroup = s;
unicode = 0073;
},
{
glyphname = t;
lastChange = "2016-11-17 19:04:20 +0000";
layers = (
{
layerId = "262880E7-CFE1-4BDA-902E-E24798F3240A";
paths = (
{
closed = 1;
nodes = (
"236 0 LINE",
"236 21 LINE",
"210 21 LINE SMOOTH",
"135 21 OFFCURVE",
"113 57 OFFCURVE",
"113 153 CURVE SMOOTH",
"113 610 LINE",
"91 610 LINE",
"91 153 LINE SMOOTH",
"91 43 OFFCURVE",
"122 0 OFFCURVE",
"210 0 CURVE SMOOTH"
);
},
{
closed = 1;
nodes = (
"236 479 LINE",
"236 500 LINE",
"23 500 LINE",
"23 479 LINE"
);
}
);
width = 278;
},
{
layerId = "4E2227F3-52E4-4048-A8EE-327B486EF0A4";
paths = (
{
closed = 1;
nodes = (
"287 5 LINE",
"287 169 LINE",
"286 169 LINE",
"233 164 OFFCURVE",
"231 172 OFFCURVE",
"231 221 CURVE SMOOTH",
"235 682 LINE",
"47 682 LINE",
"43 136 LINE SMOOTH",
"42 15 OFFCURVE",
"114 -21 OFFCURVE",
"286 5 CURVE"
);
},
{
closed = 1;
nodes = (
"286 360 LINE",
"286 520 LINE",
"0 520 LINE",
"0 360 LINE"
);
}
);
width = 299;
}
);
leftKerningGroup = t;
rightKerningGroup = t;
unicode = 0074;
},
{
glyphname = v;
lastChange = "2016-11-17 19:04:20 +0000";
layers = (
{
layerId = "262880E7-CFE1-4BDA-902E-E24798F3240A";
paths = (
{
closed = 1;
nodes = (
"200 0 LINE",
"357 500 LINE",
"332 500 LINE",
"189 33 LINE",
"46 500 LINE",
"21 500 LINE",
"178 0 LINE"
);
}
);
width = 385;
},
{
layerId = "4E2227F3-52E4-4048-A8EE-327B486EF0A4";
paths = (
{
closed = 1;
nodes = (
"338 -2 LINE",
"475 518 LINE",
"269 520 LINE",
"242 216 LINE",
"215 520 LINE",
"6 520 LINE",
"143 0 LINE"
);
}
);
width = 483;
}
);
leftKerningGroup = v;
rightKerningGroup = v;
unicode = 0076;
},
{
glyphname = w;
lastChange = "2016-11-17 19:09:54 +0000";
layers = (
{
layerId = "262880E7-CFE1-4BDA-902E-E24798F3240A";
paths = (
{
closed = 1;
nodes = (
"176 0 LINE",
"295 461 LINE",
"415 0 LINE",
"437 0 LINE",
"569 500 LINE",
"547 500 LINE",
"427 27 LINE",
"307 500 LINE",
"286 500 LINE",
"166 27 LINE",
"46 500 LINE",
"21 500 LINE",
"154 0 LINE"
);
}
);
width = 597;
},
{
layerId = "4E2227F3-52E4-4048-A8EE-327B486EF0A4";
paths = (
{
closed = 1;
nodes = (
"289 -2 LINE",
"326 211 LINE",
"363 0 LINE",
"527 -2 LINE",
"655 518 LINE",
"469 520 LINE",
"435 236 LINE",
"397 520 LINE",
"267 520 LINE",
"229 236 LINE",
"195 520 LINE",
"6 520 LINE",
"134 0 LINE"
);
}
);
width = 663;
},
{
associatedMasterId = "262880E7-CFE1-4BDA-902E-E24798F3240A";
layerId = "E3597918-BEF7-4A52-8D4A-AF02D251D940";
name = "{95,100}";
paths = (
{
closed = 1;
nodes = (
"230 -1 LINE",
"307 348 LINE",
"389 0 LINE",
"473 -1 LINE",
"605 508 LINE",
"513 509 LINE",
"433 127 LINE",
"351 509 LINE",
"266 509 LINE",
"190 127 LINE",
"106 509 LINE",
"13 509 LINE",
"146 0 LINE"
);
}
);
width = 622;
}
);
leftKerningGroup = v;
rightKerningGroup = v;
unicode = 0077;
},
{
glyphname = x;
lastChange = "2016-11-17 19:04:20 +0000";
layers = (
{
layerId = "262880E7-CFE1-4BDA-902E-E24798F3240A";
paths = (
{
closed = 1;
nodes = (
"46 0 LINE",
"193 233 LINE",
"339 0 LINE",
"364 0 LINE",
"204 250 LINE",
"364 500 LINE",
"339 500 LINE",
"193 267 LINE",
"46 500 LINE",
"21 500 LINE",
"182 250 LINE",
"21 0 LINE"
);
}
);
width = 392;
},
{
layerId = "4E2227F3-52E4-4048-A8EE-327B486EF0A4";
paths = (
{
closed = 1;
nodes = (
"206 0 LINE",
"241 108 LINE",
"276 0 LINE",
"474 0 LINE",
"328 260 LINE",
"474 520 LINE",
"276 520 LINE",
"241 418 LINE",
"206 520 LINE",
"8 520 LINE",
"154 260 LINE",
"8 0 LINE"
);
}
);
width = 482;
}
);
leftKerningGroup = x;
unicode = 0078;
},
{
glyphname = y;
lastChange = "2016-11-17 19:04:20 +0000";
layers = (
{
layerId = "262880E7-CFE1-4BDA-902E-E24798F3240A";
paths = (
{
closed = 1;
nodes = (
"120 -200 OFFCURVE",
"144 -188 OFFCURVE",
"184 -62 CURVE SMOOTH",
"361 500 LINE",
"338 500 LINE",
"194 27 LINE",
"43 500 LINE",
"21 500 LINE",
"183 0 LINE",
"139 -150 OFFCURVE",
"127 -181 OFFCURVE",
"56 -181 CURVE",
"56 -200 LINE"
);
}
);
width = 389;
},
{
layerId = "4E2227F3-52E4-4048-A8EE-327B486EF0A4";
paths = (
{
closed = 1;
nodes = (
"259 -198 OFFCURVE",
"291 -143 OFFCURVE",
"333 -2 CURVE",
"469 518 LINE",
"267 520 LINE",
"238 252 LINE",
"207 520 LINE",
"6 520 LINE",
"140 0 LINE",
"140 -21 OFFCURVE",
"141 -54 OFFCURVE",
"58 -52 CURVE",
"58 -198 LINE"
);
}
);
width = 477;
}
);
leftKerningGroup = v;
rightKerningGroup = v;
unicode = 0079;
},
{
glyphname = z;
lastChange = "2016-11-17 19:04:20 +0000";
layers = (
{
layerId = "262880E7-CFE1-4BDA-902E-E24798F3240A";
paths = (
{
closed = 1;
nodes = (
"344 0 LINE",
"344 21 LINE",
"52 21 LINE",
"348 479 LINE",
"348 500 LINE",
"32 500 LINE",
"32 479 LINE",
"324 479 LINE",
"28 21 LINE",
"28 0 LINE"
);
}
);
width = 383;
},
{
layerId = "4E2227F3-52E4-4048-A8EE-327B486EF0A4";
paths = (
{
closed = 1;
nodes = (
"388 0 LINE",
"388 170 LINE",
"222 170 LINE",
"380 350 LINE",
"380 520 LINE",
"15 520 LINE",
"15 350 LINE",
"156 350 LINE",
"8 170 LINE",
"8 0 LINE"
);
}
);
width = 398;
}
);
leftKerningGroup = z;
unicode = 007A;
},
{
glyphname = a.alt;
lastChange = "2016-11-17 13:15:35 +0000";
layers = (
{
components = (
{
name = b.bowl;
transform = "{-1, 0, 0, 1, 369, 0}";
}
);
layerId = "262880E7-CFE1-4BDA-902E-E24798F3240A";
paths = (
{
closed = 1;
nodes = (
"373 0 LINE",
"373 500 LINE",
"351 500 LINE",
"351 0 LINE"
);
}
);
width = 473;
},
{
components = (
{
name = b.bowl;
transform = "{-1, 0, 0, 1, 299, 0}";
}
);
layerId = "4E2227F3-52E4-4048-A8EE-327B486EF0A4";
paths = (
{
closed = 1;
nodes = (
"450 0 LINE",
"450 520 LINE",
"262 520 LINE",
"262 0 LINE"
);
}
);
width = 468;
},
{
associatedMasterId = "262880E7-CFE1-4BDA-902E-E24798F3240A";
components = (
{
name = b.bowl;
transform = "{-1, 0, 0, 1, 353, 0}";
}
);
layerId = "B3FF5359-FBFA-47B2-BD2A-5A0E8F8E4EE4";
name = "{95,100}";
paths = (
{
closed = 1;
nodes = (
"422 0 LINE",
"422 509 LINE",
"328 509 LINE",
"328 0 LINE"
);
}
);
width = 471;
}
);
leftKerningGroup = a;
rightKerningGroup = a;
},
{
export = 0;
glyphname = b.bowl;
lastChange = "2016-11-17 13:24:55 +0000";
layers = (
{
layerId = "262880E7-CFE1-4BDA-902E-E24798F3240A";
paths = (
{
closed = 1;
nodes = (
"250 -8 OFFCURVE",
"310 55 OFFCURVE",
"310 158 CURVE SMOOTH",
"310 342 LINE SMOOTH",
"310 445 OFFCURVE",
"252 508 OFFCURVE",
"156 508 CURVE SMOOTH",
"58 508 OFFCURVE",
"0 441 OFFCURVE",
"0 342 CURVE SMOOTH",
"0 158 LINE SMOOTH",
"0 53 OFFCURVE",
"63 -8 OFFCURVE",
"154 -8 CURVE SMOOTH"
);
},
{
closed = 1;
nodes = (
"71 13 OFFCURVE",
"18 67 OFFCURVE",
"18 155 CURVE SMOOTH",
"18 345 LINE SMOOTH",
"18 433 OFFCURVE",
"71 487 OFFCURVE",
"154 487 CURVE SMOOTH",
"237 487 OFFCURVE",
"288 433 OFFCURVE",
"288 345 CURVE SMOOTH",
"288 155 LINE SMOOTH",
"288 67 OFFCURVE",
"237 13 OFFCURVE",
"154 13 CURVE SMOOTH"
);
}
);
width = 310;
},
{
layerId = "4E2227F3-52E4-4048-A8EE-327B486EF0A4";
paths = (
{
closed = 1;
nodes = (
"239 -8 OFFCURVE",
"283 66 OFFCURVE",
"283 177 CURVE SMOOTH",
"283 343 LINE SMOOTH",
"283 454 OFFCURVE",
"239 528 OFFCURVE",
"134 528 CURVE SMOOTH",
"91 528 OFFCURVE",
"0 521 OFFCURVE",
"0 323 CURVE SMOOTH",
"0 197 LINE",
"-4 -1 OFFCURVE",
"91 -8 OFFCURVE",
"134 -8 CURVE SMOOTH"
);
},
{
closed = 1;
nodes = (
"49 164 OFFCURVE",
"37 177 OFFCURVE",
"37 197 CURVE SMOOTH",
"37 323 LINE SMOOTH",
"37 343 OFFCURVE",
"49 356 OFFCURVE",
"66 356 CURVE SMOOTH",
"83 356 OFFCURVE",
"95 343 OFFCURVE",
"95 323 CURVE SMOOTH",
"95 197 LINE SMOOTH",
"95 177 OFFCURVE",
"83 164 OFFCURVE",
"66 164 CURVE SMOOTH"
);
}
);
width = 283;
},
{
associatedMasterId = "262880E7-CFE1-4BDA-902E-E24798F3240A";
layerId = "7075B5C3-9D49-4D6E-BF1C-9E429270E949";
name = "{95,100}";
paths = (
{
closed = 1;
nodes = (
"238 -8 OFFCURVE",
"301 60 OFFCURVE",
"301 166 CURVE SMOOTH",
"301 342 LINE SMOOTH",
"301 449 OFFCURVE",
"239 517 OFFCURVE",
"139 517 CURVE SMOOTH",
"65 517 OFFCURVE",
"0 480 OFFCURVE",
"0 342 CURVE SMOOTH",
"0 167 LINE SMOOTH",
"0 25 OFFCURVE",
"68 -8 OFFCURVE",
"138 -8 CURVE SMOOTH"
);
},
{
closed = 1;
nodes = (
"64 79 OFFCURVE",
"29 115 OFFCURVE",
"29 173 CURVE SMOOTH",
"29 335 LINE SMOOTH",
"29 394 OFFCURVE",
"64 430 OFFCURVE",
"119 430 CURVE SMOOTH",
"173 430 OFFCURVE",
"207 394 OFFCURVE",
"207 335 CURVE SMOOTH",
"207 173 LINE SMOOTH",
"207 115 OFFCURVE",
"173 79 OFFCURVE",
"119 79 CURVE SMOOTH"
);
}
);
width = 301;
}
);
},
{
export = 0;
glyphname = n.curve;
lastChange = "2016-11-17 13:36:42 +0000";
layers = (
{
layerId = "262880E7-CFE1-4BDA-902E-E24798F3240A";
paths = (
{
closed = 1;
nodes = (
"305 0 LINE",
"305 347 LINE SMOOTH",
"305 446 OFFCURVE",
"244 507 OFFCURVE",
"156 507 CURVE SMOOTH",
"62 507 OFFCURVE",
"0 448 OFFCURVE",
"0 346 CURVE",
"17 346 LINE",
"17 433 OFFCURVE",
"71 486 OFFCURVE",
"153 486 CURVE SMOOTH",
"230 486 OFFCURVE",
"283 432 OFFCURVE",
"283 344 CURVE SMOOTH",
"283 0 LINE"
);
}
);
width = 305;
},
{
layerId = "4E2227F3-52E4-4048-A8EE-327B486EF0A4";
paths = (
{
closed = 1;
nodes = (
"283 0 LINE",
"283 348 LINE SMOOTH",
"283 459 OFFCURVE",
"239 528 OFFCURVE",
"134 528 CURVE SMOOTH",
"91 528 OFFCURVE",
"-1 520 OFFCURVE",
"0 335 CURVE",
"37 335 LINE",
"37 354 OFFCURVE",
"49 367 OFFCURVE",
"67 367 CURVE SMOOTH",
"84 367 OFFCURVE",
"95 354 OFFCURVE",
"95 335 CURVE SMOOTH",
"95 0 LINE"
);
}
);
width = 283;
},
{
associatedMasterId = "262880E7-CFE1-4BDA-902E-E24798F3240A";
layerId = "A2DD2087-447C-4684-8CEE-3BC4A0417315";
name = "{95,100}";
paths = (
{
closed = 1;
nodes = (
"308 0 LINE",
"308 347 LINE SMOOTH",
"308 452 OFFCURVE",
"249 516 OFFCURVE",
"149 516 CURVE SMOOTH",
"73 516 OFFCURVE",
"-10 480 OFFCURVE",
"-10 333 CURVE",
"26 333 LINE",
"26 391 OFFCURVE",
"65 426 OFFCURVE",
"123 426 CURVE SMOOTH",
"177 426 OFFCURVE",
"214 390 OFFCURVE",
"214 332 CURVE SMOOTH",
"214 0 LINE"
);
}
);
width = 308;
}
);
},
{
glyphname = zero;
lastChange = "2016-11-17 19:04:20 +0000";
layers = (
{
layerId = "262880E7-CFE1-4BDA-902E-E24798F3240A";
paths = (
{
closed = 1;
nodes = (
"322 -9 OFFCURVE",
"391 56 OFFCURVE",
"391 154 CURVE SMOOTH",
"391 546 LINE SMOOTH",
"391 644 OFFCURVE",
"322 709 OFFCURVE",
"224 709 CURVE SMOOTH",
"126 709 OFFCURVE",
"56 644 OFFCURVE",
"56 546 CURVE SMOOTH",
"56 154 LINE SMOOTH",
"56 56 OFFCURVE",
"126 -9 OFFCURVE",
"224 -9 CURVE SMOOTH"
);
},
{
closed = 1;
nodes = (
"139 12 OFFCURVE",
"78 68 OFFCURVE",
"78 152 CURVE SMOOTH",
"78 548 LINE SMOOTH",
"78 632 OFFCURVE",
"139 688 OFFCURVE",
"224 688 CURVE SMOOTH",
"309 688 OFFCURVE",
"369 632 OFFCURVE",
"369 548 CURVE SMOOTH",
"369 152 LINE SMOOTH",
"369 68 OFFCURVE",
"309 12 OFFCURVE",
"224 12 CURVE SMOOTH"
);
}
);
width = 447;
},
{
layerId = "4E2227F3-52E4-4048-A8EE-327B486EF0A4";
paths = (
{
closed = 1;
nodes = (
"376 -8 OFFCURVE",
"466 78 OFFCURVE",
"466 208 CURVE SMOOTH",
"466 492 LINE SMOOTH",
"466 622 OFFCURVE",
"376 708 OFFCURVE",
"241 708 CURVE SMOOTH",
"106 708 OFFCURVE",
"16 622 OFFCURVE",
"16 492 CURVE SMOOTH",
"16 208 LINE SMOOTH",
"16 78 OFFCURVE",
"106 -8 OFFCURVE",
"241 -8 CURVE SMOOTH"
);
},
{
closed = 1;
nodes = (
"219 162 OFFCURVE",
"204 180 OFFCURVE",
"204 208 CURVE SMOOTH",
"204 492 LINE SMOOTH",
"204 520 OFFCURVE",
"219 538 OFFCURVE",
"241 538 CURVE SMOOTH",
"263 538 OFFCURVE",
"278 520 OFFCURVE",
"278 492 CURVE SMOOTH",
"278 208 LINE SMOOTH",
"278 180 OFFCURVE",
"263 162 OFFCURVE",
"241 162 CURVE SMOOTH"
);
}
);
width = 482;
}
);
unicode = 0030;
},
{
glyphname = one;
lastChange = "2016-11-17 19:12:24 +0000";
layers = (
{
layerId = "262880E7-CFE1-4BDA-902E-E24798F3240A";
paths = (
{
closed = 1;
nodes = (
"174 0 LINE",
"174 700 LINE",
"152 700 LINE",
"152 0 LINE"
);
},
{
closed = 1;
nodes = (
"63 637 LINE",
"152 669 LINE",
"152 700 LINE",
"63 658 LINE"
);
}
);
width = 244;
},
{
layerId = "4E2227F3-52E4-4048-A8EE-327B486EF0A4";
paths = (
{
closed = 1;
nodes = (
"260 0 LINE",
"260 700 LINE",
"72 700 LINE",
"72 0 LINE"
);
},
{
closed = 1;
nodes = (
"20 529 LINE",
"72 529 LINE",
"72 700 LINE",
"20 673 LINE"
);
}
);
width = 282;
}
);
unicode = 0031;
},
{
glyphname = two;
lastChange = "2016-11-17 19:04:20 +0000";
layers = (
{
layerId = "262880E7-CFE1-4BDA-902E-E24798F3240A";
paths = (
{
closed = 1;
nodes = (
"390 0 LINE",
"390 21 LINE",
"75 21 LINE",
"289 323 LINE SMOOTH",
"351 410 OFFCURVE",
"382 485 OFFCURVE",
"382 544 CURVE SMOOTH",
"382 652 OFFCURVE",
"327 708 OFFCURVE",
"213 708 CURVE SMOOTH",
"115 708 OFFCURVE",
"49 636 OFFCURVE",
"49 528 CURVE SMOOTH",
"49 500 LINE",
"72 500 LINE",
"72 528 LINE",
"71 623 OFFCURVE",
"128 687 OFFCURVE",
"213 687 CURVE SMOOTH",
"312 687 OFFCURVE",
"360 638 OFFCURVE",
"360 544 CURVE SMOOTH",
"360 490 OFFCURVE",
"330 420 OFFCURVE",
"270 335 CURVE SMOOTH",
"49 21 LINE",
"49 0 LINE"
);
}
);
width = 425;
},
{
layerId = "4E2227F3-52E4-4048-A8EE-327B486EF0A4";
paths = (
{
closed = 1;
nodes = (
"469 0 LINE",
"469 170 LINE",
"275 170 LINE",
"404 311 LINE",
"456 382 OFFCURVE",
"463 425 OFFCURVE",
"463 520 CURVE SMOOTH",
"463 639 OFFCURVE",
"369 708 OFFCURVE",
"238 708 CURVE SMOOTH",
"111 708 OFFCURVE",
"21 640 OFFCURVE",
"14 520 CURVE",
"14 455 LINE",
"204 455 LINE",
"204 503 LINE",
"204 524 OFFCURVE",
"218 538 OFFCURVE",
"239 538 CURVE SMOOTH",
"259 538 OFFCURVE",
"273 524 OFFCURVE",
"273 503 CURVE SMOOTH",
"273 457 OFFCURVE",
"258 423 OFFCURVE",
"204 361 CURVE",
"18 170 LINE",
"18 0 LINE"
);
}
);
width = 479;
},
{
associatedMasterId = "262880E7-CFE1-4BDA-902E-E24798F3240A";
layerId = "F78DC261-0EB4-494E-AC31-41D8EA41B416";
name = "{95,100}";
paths = (
{
closed = 1;
nodes = (
"421 0 LINE",
"421 86 LINE",
"158 86 LINE",
"335 318 LINE SMOOTH",
"393 398 OFFCURVE",
"413 459 OFFCURVE",
"413 534 CURVE SMOOTH",
"413 646 OFFCURVE",
"341 708 OFFCURVE",
"220 708 CURVE SMOOTH",
"109 708 OFFCURVE",
"33 638 OFFCURVE",
"30 525 CURVE SMOOTH",
"30 480 LINE",
"126 480 LINE",
"126 513 LINE",
"125 576 OFFCURVE",
"163 618 OFFCURVE",
"220 618 CURVE SMOOTH",
"285 618 OFFCURVE",
"318 584 OFFCURVE",
"318 522 CURVE SMOOTH",
"318 472 OFFCURVE",
"295 421 OFFCURVE",
"237 346 CURVE SMOOTH",
"32 86 LINE",
"32 0 LINE"
);
}
);
width = 442;
}
);
unicode = 0032;
},
{
glyphname = three;
lastChange = "2016-11-17 19:04:20 +0000";
layers = (
{
layerId = "262880E7-CFE1-4BDA-902E-E24798F3240A";
paths = (
{
closed = 1;
nodes = (
"318 -8 OFFCURVE",
"384 58 OFFCURVE",
"384 158 CURVE SMOOTH",
"384 262 LINE SMOOTH",
"384 362 OFFCURVE",
"321 431 OFFCURVE",
"211 428 CURVE",
"387 679 LINE",
"387 700 LINE",
"54 700 LINE",
"54 679 LINE",
"361 679 LINE",
"175 416 LINE",
"186 404 LINE",
"196 406 OFFCURVE",
"206 407 OFFCURVE",
"217 407 CURVE SMOOTH",
"304 407 OFFCURVE",
"362 350 OFFCURVE",
"362 265 CURVE SMOOTH",
"362 155 LINE SMOOTH",
"362 70 OFFCURVE",
"304 13 OFFCURVE",
"217 13 CURVE SMOOTH",
"130 13 OFFCURVE",
"71 70 OFFCURVE",
"71 155 CURVE SMOOTH",
"71 201 LINE",
"49 201 LINE",
"49 158 LINE SMOOTH",
"49 58 OFFCURVE",
"116 -8 OFFCURVE",
"217 -8 CURVE SMOOTH"
);
}
);
width = 443;
},
{
layerId = "4E2227F3-52E4-4048-A8EE-327B486EF0A4";
paths = (
{
closed = 1;
nodes = (
"366 -7 OFFCURVE",
"454 59 OFFCURVE",
"454 172 CURVE SMOOTH",
"454 276 LINE SMOOTH",
"454 349 OFFCURVE",
"411 427 OFFCURVE",
"347 433 CURVE",
"454 530 LINE",
"454 700 LINE",
"47 700 LINE",
"47 530 LINE",
"228 530 LINE",
"91 417 LINE",
"192 312 LINE",
"208 333 OFFCURVE",
"218 340 OFFCURVE",
"234 340 CURVE SMOOTH",
"253 340 OFFCURVE",
"266 327 OFFCURVE",
"266 308 CURVE SMOOTH",
"266 185 LINE SMOOTH",
"266 166 OFFCURVE",
"253 153 OFFCURVE",
"234 153 CURVE SMOOTH",
"215 153 OFFCURVE",
"202 166 OFFCURVE",
"202 185 CURVE SMOOTH",
"202 232 LINE",
"14 232 LINE",
"14 172 LINE SMOOTH",
"14 59 OFFCURVE",
"102 -7 OFFCURVE",
"234 -7 CURVE SMOOTH"
);
}
);
width = 470;
}
);
unicode = 0033;
},
{
glyphname = four;
lastChange = "2016-11-17 19:04:20 +0000";
layers = (
{
layerId = "262880E7-CFE1-4BDA-902E-E24798F3240A";
paths = (
{
closed = 1;
nodes = (
"316 222 LINE",
"316 -7 LINE",
"338 -7 LINE",
"338 415 LINE",
"316 415 LINE"
);
},
{
closed = 1;
nodes = (
"51 222 LINE",
"265 700 LINE",
"241 700 LINE",
"28 222 LINE",
"28 202 LINE",
"391 202 LINE",
"391 222 LINE"
);
}
);
width = 419;
},
{
layerId = "4E2227F3-52E4-4048-A8EE-327B486EF0A4";
paths = (
{
closed = 1;
nodes = (
"277 337 LINE",
"277 0 LINE",
"465 0 LINE",
"465 480 LINE",
"307 480 LINE"
);
},
{
closed = 1;
nodes = (
"226 337 LINE",
"344 700 LINE",
"147 700 LINE",
"8 302 LINE",
"8 167 LINE",
"519 167 LINE",
"519 337 LINE"
);
}
);
width = 527;
}
);
unicode = 0034;
},
{
glyphname = five;
lastChange = "2016-11-17 13:42:12 +0000";
layers = (
{
layerId = "262880E7-CFE1-4BDA-902E-E24798F3240A";
paths = (
{
closed = 1;
nodes = (
"316 -8 OFFCURVE",
"382 58 OFFCURVE",
"382 158 CURVE SMOOTH",
"382 262 LINE SMOOTH",
"382 362 OFFCURVE",
"316 428 OFFCURVE",
"215 428 CURVE SMOOTH",
"87 428 LINE",
"87 681 LINE",
"379 681 LINE",
"379 702 LINE",
"65 702 LINE",
"65 407 LINE",
"215 407 LINE SMOOTH",
"302 407 OFFCURVE",
"360 350 OFFCURVE",
"360 265 CURVE SMOOTH",
"360 155 LINE SMOOTH",
"360 70 OFFCURVE",
"302 13 OFFCURVE",
"215 13 CURVE SMOOTH",
"128 13 OFFCURVE",
"69 70 OFFCURVE",
"69 155 CURVE SMOOTH",
"69 194 LINE",
"47 194 LINE",
"47 158 LINE SMOOTH",
"47 58 OFFCURVE",
"114 -8 OFFCURVE",
"215 -8 CURVE SMOOTH"
);
}
);
width = 429;
},
{
layerId = "4E2227F3-52E4-4048-A8EE-327B486EF0A4";
paths = (
{
closed = 1;
nodes = (
"364 -7 OFFCURVE",
"452 59 OFFCURVE",
"452 172 CURVE SMOOTH",
"452 286 LINE SMOOTH",
"452 400 OFFCURVE",
"364 470 OFFCURVE",
"232 470 CURVE",
"200 470 LINE",
"200 530 LINE",
"450 530 LINE",
"450 700 LINE",
"12 700 LINE",
"12 305 LINE",
"232 305 LINE SMOOTH",
"251 305 OFFCURVE",
"264 292 OFFCURVE",
"264 273 CURVE SMOOTH",
"264 185 LINE SMOOTH",
"264 166 OFFCURVE",
"251 153 OFFCURVE",
"232 153 CURVE SMOOTH",
"213 153 OFFCURVE",
"200 166 OFFCURVE",
"200 185 CURVE SMOOTH",
"200 263 LINE",
"12 263 LINE",
"12 172 LINE SMOOTH",
"12 59 OFFCURVE",
"100 -7 OFFCURVE",
"232 -7 CURVE SMOOTH"
);
}
);
width = 464;
}
);
unicode = 0035;
},
{
glyphname = six;
lastChange = "2016-11-17 19:04:20 +0000";
layers = (
{
layerId = "262880E7-CFE1-4BDA-902E-E24798F3240A";
paths = (
{
closed = 1;
nodes = (
"400 542 LINE SMOOTH",
"400 642 OFFCURVE",
"334 708 OFFCURVE",
"232 708 CURVE SMOOTH",
"130 708 OFFCURVE",
"63 642 OFFCURVE",
"63 542 CURVE SMOOTH",
"63 158 LINE SMOOTH",
"63 58 OFFCURVE",
"130 -8 OFFCURVE",
"232 -8 CURVE SMOOTH",
"334 -8 OFFCURVE",
"400 58 OFFCURVE",
"400 158 CURVE SMOOTH",
"400 262 LINE SMOOTH",
"400 362 OFFCURVE",
"334 428 OFFCURVE",
"232 428 CURVE SMOOTH",
"162 428 OFFCURVE",
"108 395 OFFCURVE",
"82 340 CURVE",
"85 340 LINE",
"85 545 LINE SMOOTH",
"85 630 OFFCURVE",
"144 687 OFFCURVE",
"232 687 CURVE SMOOTH",
"320 687 OFFCURVE",
"378 630 OFFCURVE",
"378 545 CURVE SMOOTH",
"378 500 LINE",
"400 500 LINE"
);
},
{
closed = 1;
nodes = (
"320 407 OFFCURVE",
"378 350 OFFCURVE",
"378 265 CURVE SMOOTH",
"378 155 LINE SMOOTH",
"378 70 OFFCURVE",
"320 13 OFFCURVE",
"232 13 CURVE SMOOTH",
"144 13 OFFCURVE",
"85 70 OFFCURVE",
"85 155 CURVE SMOOTH",
"85 265 LINE SMOOTH",
"85 350 OFFCURVE",
"144 407 OFFCURVE",
"232 407 CURVE SMOOTH"
);
}
);
width = 449;
},
{
layerId = "4E2227F3-52E4-4048-A8EE-327B486EF0A4";
paths = (
{
closed = 1;
nodes = (
"458 524 LINE SMOOTH",
"458 638 OFFCURVE",
"370 708 OFFCURVE",
"238 708 CURVE SMOOTH",
"106 708 OFFCURVE",
"18 638 OFFCURVE",
"18 524 CURVE SMOOTH",
"18 171 LINE SMOOTH",
"18 58 OFFCURVE",
"106 -8 OFFCURVE",
"238 -8 CURVE SMOOTH",
"370 -8 OFFCURVE",
"458 58 OFFCURVE",
"458 171 CURVE SMOOTH",
"458 260 LINE SMOOTH",
"458 390 OFFCURVE",
"369 444 OFFCURVE",
"278 444 CURVE SMOOTH",
"179 444 OFFCURVE",
"157 381 OFFCURVE",
"157 367 CURVE",
"206 367 LINE",
"206 511 LINE SMOOTH",
"206 530 OFFCURVE",
"219 543 OFFCURVE",
"238 543 CURVE SMOOTH",
"257 543 OFFCURVE",
"270 530 OFFCURVE",
"270 511 CURVE SMOOTH",
"270 470 LINE",
"458 470 LINE"
);
},
{
closed = 1;
nodes = (
"257 284 OFFCURVE",
"270 271 OFFCURVE",
"270 252 CURVE SMOOTH",
"270 184 LINE SMOOTH",
"270 165 OFFCURVE",
"257 152 OFFCURVE",
"238 152 CURVE SMOOTH",
"219 152 OFFCURVE",
"206 165 OFFCURVE",
"206 184 CURVE SMOOTH",
"206 252 LINE SMOOTH",
"206 271 OFFCURVE",
"219 284 OFFCURVE",
"238 284 CURVE SMOOTH"
);
}
);
width = 472;
}
);
unicode = 0036;
},
{
glyphname = seven;
lastChange = "2016-11-17 19:04:20 +0000";
layers = (
{
layerId = "262880E7-CFE1-4BDA-902E-E24798F3240A";
paths = (
{
closed = 1;
nodes = (
"134 0 LINE",
"362 679 LINE",
"362 700 LINE",
"21 700 LINE",
"21 679 LINE",
"338 679 LINE",
"109 0 LINE"
);
}
);
width = 383;
},
{
layerId = "4E2227F3-52E4-4048-A8EE-327B486EF0A4";
paths = (
{
closed = 1;
nodes = (
"237 0 LINE",
"416 530 LINE",
"416 700 LINE",
"6 700 LINE",
"6 530 LINE",
"218 530 LINE",
"41 0 LINE"
);
}
);
width = 422;
}
);
unicode = 0037;
},
{
glyphname = eight;
lastChange = "2016-11-17 19:04:20 +0000";
layers = (
{
layerId = "262880E7-CFE1-4BDA-902E-E24798F3240A";
paths = (
{
closed = 1;
nodes = (
"329 -18 OFFCURVE",
"396 54 OFFCURVE",
"396 161 CURVE SMOOTH",
"396 215 LINE SMOOTH",
"396 322 OFFCURVE",
"329 394 OFFCURVE",
"227 394 CURVE SMOOTH",
"125 394 OFFCURVE",
"56 322 OFFCURVE",
"56 215 CURVE SMOOTH",
"56 161 LINE SMOOTH",
"56 54 OFFCURVE",
"125 -18 OFFCURVE",
"227 -18 CURVE SMOOTH"
);
},
{
closed = 1;
nodes = (
"138 2 OFFCURVE",
"78 66 OFFCURVE",
"78 161 CURVE SMOOTH",
"78 215 LINE SMOOTH",
"78 311 OFFCURVE",
"138 375 OFFCURVE",
"227 375 CURVE SMOOTH",
"316 375 OFFCURVE",
"374 311 OFFCURVE",
"374 215 CURVE SMOOTH",
"374 161 LINE SMOOTH",
"374 66 OFFCURVE",
"316 2 OFFCURVE",
"227 2 CURVE SMOOTH"
);
},
{
closed = 1;
nodes = (
"329 375 OFFCURVE",
"394 439 OFFCURVE",
"394 534 CURVE SMOOTH",
"394 549 LINE SMOOTH",
"394 644 OFFCURVE",
"329 708 OFFCURVE",
"227 708 CURVE SMOOTH",
"125 708 OFFCURVE",
"58 644 OFFCURVE",
"58 549 CURVE SMOOTH",
"58 534 LINE SMOOTH",
"58 439 OFFCURVE",
"125 375 OFFCURVE",
"227 375 CURVE SMOOTH"
);
},
{
closed = 1;
nodes = (
"138 395 OFFCURVE",
"80 451 OFFCURVE",
"80 534 CURVE SMOOTH",
"80 549 LINE SMOOTH",
"80 633 OFFCURVE",
"138 689 OFFCURVE",
"227 689 CURVE SMOOTH",
"316 689 OFFCURVE",
"372 633 OFFCURVE",
"372 549 CURVE SMOOTH",
"372 534 LINE SMOOTH",
"372 451 OFFCURVE",
"316 395 OFFCURVE",
"227 395 CURVE SMOOTH"
);
}
);
width = 452;
},
{
layerId = "4E2227F3-52E4-4048-A8EE-327B486EF0A4";
paths = (
{
closed = 1;
nodes = (
"395 -8 OFFCURVE",
"484 69 OFFCURVE",
"484 194 CURVE SMOOTH",
"484 241 LINE SMOOTH",
"484 427 OFFCURVE",
"290 403 OFFCURVE",
"250 403 CURVE SMOOTH",
"210 403 OFFCURVE",
"16 427 OFFCURVE",
"16 241 CURVE SMOOTH",
"16 195 LINE SMOOTH",
"16 69 OFFCURVE",
"105 -8 OFFCURVE",
"250 -8 CURVE SMOOTH"
);
},
{
closed = 1;
nodes = (
"221 152 OFFCURVE",
"204 171 OFFCURVE",
"204 203 CURVE SMOOTH",
"204 237 LINE SMOOTH",
"204 269 OFFCURVE",
"221 288 OFFCURVE",
"250 288 CURVE",
"279 288 OFFCURVE",
"296 269 OFFCURVE",
"296 237 CURVE SMOOTH",
"296 203 LINE SMOOTH",
"296 171 OFFCURVE",
"279 152 OFFCURVE",
"250 152 CURVE SMOOTH"
);
},
{
closed = 1;
nodes = (
"355 294 OFFCURVE",
"484 339 OFFCURVE",
"484 486 CURVE SMOOTH",
"484 525 LINE SMOOTH",
"484 650 OFFCURVE",
"396 708 OFFCURVE",
"250 708 CURVE SMOOTH",
"105 708 OFFCURVE",
"16 651 OFFCURVE",
"16 525 CURVE SMOOTH",
"16 487 LINE SMOOTH",
"16 339 OFFCURVE",
"135 294 OFFCURVE",
"250 294 CURVE SMOOTH"
);
},
{
closed = 1;
nodes = (
"221 422 OFFCURVE",
"204 441 OFFCURVE",
"204 473 CURVE SMOOTH",
"204 497 LINE SMOOTH",
"204 529 OFFCURVE",
"221 548 OFFCURVE",
"250 548 CURVE SMOOTH",
"279 548 OFFCURVE",
"296 529 OFFCURVE",
"296 497 CURVE SMOOTH",
"296 473 LINE SMOOTH",
"296 441 OFFCURVE",
"279 422 OFFCURVE",
"250 422 CURVE SMOOTH"
);
}
);
width = 500;
},
{
associatedMasterId = "262880E7-CFE1-4BDA-902E-E24798F3240A";
layerId = "B41EB33A-408D-4C01-B8DA-ABE53E8149E1";
name = "{95,100}";
paths = (
{
closed = 1;
nodes = (
"353 -14 OFFCURVE",
"430 61 OFFCURVE",
"430 175 CURVE SMOOTH",
"430 226 LINE SMOOTH",
"430 368 OFFCURVE",
"307 398 OFFCURVE",
"233 398 CURVE SMOOTH",
"158 398 OFFCURVE",
"34 368 OFFCURVE",
"34 226 CURVE SMOOTH",
"34 176 LINE SMOOTH",
"34 61 OFFCURVE",
"112 -14 OFFCURVE",
"233 -14 CURVE SMOOTH"
);
},
{
closed = 1;
nodes = (
"170 76 OFFCURVE",
"128 121 OFFCURVE",
"128 188 CURVE SMOOTH",
"128 225 LINE SMOOTH",
"128 293 OFFCURVE",
"170 337 OFFCURVE",
"233 337 CURVE SMOOTH",
"295 337 OFFCURVE",
"335 293 OFFCURVE",
"335 225 CURVE SMOOTH",
"335 188 LINE SMOOTH",
"335 121 OFFCURVE",
"295 76 OFFCURVE",
"233 76 CURVE SMOOTH"
);
},
{
closed = 1;
nodes = (
"336 340 OFFCURVE",
"419 395 OFFCURVE",
"419 513 CURVE SMOOTH",
"419 539 LINE SMOOTH",
"419 647 OFFCURVE",
"354 708 OFFCURVE",
"233 708 CURVE SMOOTH",
"112 708 OFFCURVE",
"45 647 OFFCURVE",
"45 539 CURVE SMOOTH",
"45 513 LINE SMOOTH",
"45 395 OFFCURVE",
"125 340 OFFCURVE",
"233 340 CURVE SMOOTH"
);
},
{
closed = 1;
nodes = (
"170 407 OFFCURVE",
"140 447 OFFCURVE",
"140 507 CURVE SMOOTH",
"140 517 LINE SMOOTH",
"140 579 OFFCURVE",
"170 618 OFFCURVE",
"233 618 CURVE SMOOTH",
"295 618 OFFCURVE",
"324 579 OFFCURVE",
"324 517 CURVE SMOOTH",
"324 507 LINE SMOOTH",
"324 447 OFFCURVE",
"295 407 OFFCURVE",
"233 407 CURVE SMOOTH"
);
}
);
width = 464;
}
);
unicode = 0038;
},
{
glyphname = colon;
lastChange = "2016-11-17 13:42:12 +0000";
layers = (
{
layerId = "262880E7-CFE1-4BDA-902E-E24798F3240A";
paths = (
{
closed = 1;
nodes = (
"177 350 OFFCURVE",
"196 368 OFFCURVE",
"196 391 CURVE SMOOTH",
"196 413 OFFCURVE",
"177 431 OFFCURVE",
"155 431 CURVE SMOOTH",
"134 431 OFFCURVE",
"115 413 OFFCURVE",
"115 391 CURVE SMOOTH",
"115 368 OFFCURVE",
"133 350 OFFCURVE",
"155 350 CURVE SMOOTH"
);
},
{
closed = 1;
nodes = (
"177 7 OFFCURVE",
"196 25 OFFCURVE",
"196 48 CURVE SMOOTH",
"196 70 OFFCURVE",
"177 88 OFFCURVE",
"155 88 CURVE SMOOTH",
"134 88 OFFCURVE",
"115 70 OFFCURVE",
"115 48 CURVE SMOOTH",
"115 25 OFFCURVE",
"133 7 OFFCURVE",
"155 7 CURVE SMOOTH"
);
}
);
width = 311;
},
{
layerId = "4E2227F3-52E4-4048-A8EE-327B486EF0A4";
paths = (
{
closed = 1;
nodes = (
"223 321 OFFCURVE",
"266 368 OFFCURVE",
"266 426 CURVE SMOOTH",
"266 484 OFFCURVE",
"214 530 OFFCURVE",
"161 530 CURVE SMOOTH",
"108 530 OFFCURVE",
"56 484 OFFCURVE",
"56 426 CURVE SMOOTH",
"56 368 OFFCURVE",
"99 321 OFFCURVE",
"161 321 CURVE SMOOTH"
);
},
{
closed = 1;
nodes = (
"223 0 OFFCURVE",
"266 47 OFFCURVE",
"266 105 CURVE SMOOTH",
"266 163 OFFCURVE",
"214 209 OFFCURVE",
"161 209 CURVE SMOOTH",
"108 209 OFFCURVE",
"56 163 OFFCURVE",
"56 105 CURVE SMOOTH",
"56 47 OFFCURVE",
"99 0 OFFCURVE",
"161 0 CURVE SMOOTH"
);
}
);
width = 318;
}
);
leftKerningGroup = colon;
unicode = 003A;
},
{
glyphname = comma;
lastChange = "2016-11-17 13:42:12 +0000";
layers = (
{
layerId = "262880E7-CFE1-4BDA-902E-E24798F3240A";
paths = (
{
closed = 1;
nodes = (
"130 -66 LINE",
"184 153 LINE",
"162 153 LINE",
"108 -66 LINE"
);
}
);
width = 293;
},
{
layerId = "4E2227F3-52E4-4048-A8EE-327B486EF0A4";
paths = (
{
closed = 1;
nodes = (
"146 -111 LINE",
"209 160 LINE",
"41 160 LINE",
"24 -111 LINE"
);
}
);
width = 233;
}
);
leftKerningGroup = comma;
rightKerningGroup = comma;
unicode = 002C;
},
{
glyphname = exclam;
lastChange = "2016-11-17 13:42:12 +0000";
layers = (
{
layerId = "262880E7-CFE1-4BDA-902E-E24798F3240A";
paths = (
{
closed = 1;
nodes = (
"160 220 LINE",
"160 700 LINE",
"138 700 LINE",
"138 220 LINE"
);
},
{
closed = 1;
nodes = (
"168 5 OFFCURVE",
"187 23 OFFCURVE",
"187 46 CURVE SMOOTH",
"187 68 OFFCURVE",
"168 86 OFFCURVE",
"146 86 CURVE SMOOTH",
"125 86 OFFCURVE",
"106 68 OFFCURVE",
"106 46 CURVE SMOOTH",
"106 23 OFFCURVE",
"124 5 OFFCURVE",
"146 5 CURVE SMOOTH"
);
}
);
width = 297;
},
{
layerId = "4E2227F3-52E4-4048-A8EE-327B486EF0A4";
paths = (
{
closed = 1;
nodes = (
"225 248 LINE",
"245 700 LINE",
"57 700 LINE",
"77 248 LINE"
);
},
{
closed = 1;
nodes = (
"212 0 OFFCURVE",
"255 47 OFFCURVE",
"255 105 CURVE SMOOTH",
"255 163 OFFCURVE",
"203 209 OFFCURVE",
"150 209 CURVE SMOOTH",
"97 209 OFFCURVE",
"45 163 OFFCURVE",
"45 105 CURVE SMOOTH",
"45 47 OFFCURVE",
"88 0 OFFCURVE",
"150 0 CURVE SMOOTH"
);
}
);
width = 302;
}
);
unicode = 0021;
},
{
glyphname = period;
lastChange = "2016-11-17 13:42:12 +0000";
layers = (
{
layerId = "262880E7-CFE1-4BDA-902E-E24798F3240A";
paths = (
{
closed = 1;
nodes = (
"177 7 OFFCURVE",
"196 25 OFFCURVE",
"196 48 CURVE SMOOTH",
"196 70 OFFCURVE",
"177 88 OFFCURVE",
"155 88 CURVE SMOOTH",
"134 88 OFFCURVE",
"115 70 OFFCURVE",
"115 48 CURVE SMOOTH",
"115 25 OFFCURVE",
"133 7 OFFCURVE",
"155 7 CURVE SMOOTH"
);
}
);
width = 313;
},
{
layerId = "4E2227F3-52E4-4048-A8EE-327B486EF0A4";
paths = (
{
closed = 1;
nodes = (
"211 -8 OFFCURVE",
"254 39 OFFCURVE",
"254 97 CURVE SMOOTH",
"254 155 OFFCURVE",
"202 201 OFFCURVE",
"149 201 CURVE SMOOTH",
"96 201 OFFCURVE",
"44 155 OFFCURVE",
"44 97 CURVE SMOOTH",
"44 39 OFFCURVE",
"87 -8 OFFCURVE",
"149 -8 CURVE SMOOTH"
);
}
);
width = 308;
}
);
leftKerningGroup = comma;
rightKerningGroup = comma;
unicode = 002E;
},
{
glyphname = question;
lastChange = "2016-11-17 17:45:14 +0000";
layers = (
{
layerId = "262880E7-CFE1-4BDA-902E-E24798F3240A";
paths = (
{
closed = 1;
nodes = (
"197 185 LINE",
"197 271 LINE",
"197 372 OFFCURVE",
"356 378 OFFCURVE",
"356 546 CURVE SMOOTH",
"356 645 OFFCURVE",
"294 709 OFFCURVE",
"202 709 CURVE SMOOTH",
"109 709 OFFCURVE",
"46 645 OFFCURVE",
"46 550 CURVE SMOOTH",
"46 500 LINE",
"68 500 LINE",
"68 550 LINE SMOOTH",
"68 633 OFFCURVE",
"122 688 OFFCURVE",
"202 688 CURVE SMOOTH",
"281 688 OFFCURVE",
"334 633 OFFCURVE",
"334 549 CURVE SMOOTH",
"334 395 OFFCURVE",
"173 394 OFFCURVE",
"173 271 CURVE",
"173 185 LINE"
);
},
{
closed = 1;
nodes = (
"209 5 OFFCURVE",
"228 23 OFFCURVE",
"228 46 CURVE SMOOTH",
"228 68 OFFCURVE",
"209 86 OFFCURVE",
"187 86 CURVE SMOOTH",
"166 86 OFFCURVE",
"147 68 OFFCURVE",
"147 46 CURVE SMOOTH",
"147 23 OFFCURVE",
"165 5 OFFCURVE",
"187 5 CURVE SMOOTH"
);
}
);
width = 405;
},
{
layerId = "4E2227F3-52E4-4048-A8EE-327B486EF0A4";
paths = (
{
closed = 1;
nodes = (
"391 236 LINE",
"391 252 LINE",
"391 339 OFFCURVE",
"551 338 OFFCURVE",
"551 503 CURVE SMOOTH",
"551 627 OFFCURVE",
"461 710 OFFCURVE",
"320 710 CURVE SMOOTH",
"174 710 OFFCURVE",
"74 620 OFFCURVE",
"74 488 CURVE SMOOTH",
"74 478 LINE",
"262 469 LINE",
"262 488 LINE SMOOTH",
"262 517 OFFCURVE",
"281 539 OFFCURVE",
"315 539 CURVE SMOOTH",
"344 539 OFFCURVE",
"361 522 OFFCURVE",
"361 494 CURVE SMOOTH",
"361 418 OFFCURVE",
"205 410 OFFCURVE",
"205 264 CURVE",
"205 236 LINE"
);
},
{
closed = 1;
nodes = (
"359 -5 OFFCURVE",
"404 38 OFFCURVE",
"404 91 CURVE SMOOTH",
"404 144 OFFCURVE",
"358 187 OFFCURVE",
"306 187 CURVE SMOOTH",
"254 187 OFFCURVE",
"209 144 OFFCURVE",
"209 90 CURVE SMOOTH",
"209 38 OFFCURVE",
"252 -5 OFFCURVE",
"305 -5 CURVE SMOOTH"
);
}
);
width = 601;
}
);
unicode = 003F;
},
{
glyphname = quotedbl;
lastChange = "2016-11-17 17:30:52 +0000";
layers = (
{
layerId = "262880E7-CFE1-4BDA-902E-E24798F3240A";
paths = (
{
closed = 1;
nodes = (
"145 500 LINE",
"148 692 LINE",
"122 692 LINE",
"125 500 LINE"
);
},
{
closed = 1;
nodes = (
"57 500 LINE",
"60 692 LINE",
"34 692 LINE",
"37 500 LINE"
);
}
);
width = 182;
},
{
layerId = "4E2227F3-52E4-4048-A8EE-327B486EF0A4";
paths = (
{
closed = 1;
nodes = (
"382 460 LINE",
"402 700 LINE",
"224 700 LINE",
"244 460 LINE"
);
},
{
closed = 1;
nodes = (
"156 460 LINE",
"176 700 LINE",
"-2 700 LINE",
"18 460 LINE"
);
}
);
width = 400;
}
);
leftKerningGroup = quotedbl;
leftMetricsKey = "=quotesingle";
rightKerningGroup = quotedbl;
rightMetricsKey = "=quotesingle";
unicode = 0022;
},
{
glyphname = quotesingle;
lastChange = "2016-11-17 13:55:03 +0000";
layers = (
{
layerId = "262880E7-CFE1-4BDA-902E-E24798F3240A";
paths = (
{
closed = 1;
nodes = (
"57 507 LINE",
"60 697 LINE",
"34 697 LINE",
"37 507 LINE"
);
}
);
width = 94;
},
{
layerId = "4E2227F3-52E4-4048-A8EE-327B486EF0A4";
paths = (
{
closed = 1;
nodes = (
"166 460 LINE",
"186 700 LINE",
"-2 700 LINE",
"18 460 LINE"
);
}
);
width = 184;
}
);
leftKerningGroup = quotedbl;
leftMetricsKey = "=n-20";
rightKerningGroup = quotedbl;
rightMetricsKey = "=|n-20";
unicode = 0027;
},
{
glyphname = semicolon;
lastChange = "2016-11-17 13:42:12 +0000";
layers = (
{
layerId = "262880E7-CFE1-4BDA-902E-E24798F3240A";
paths = (
{
closed = 1;
nodes = (
"133 -60 LINE",
"168 147 LINE",
"144 147 LINE",
"112 -60 LINE"
);
},
{
closed = 1;
nodes = (
"174 370 OFFCURVE",
"193 388 OFFCURVE",
"193 411 CURVE",
"193 433 OFFCURVE",
"174 451 OFFCURVE",
"152 451 CURVE SMOOTH",
"131 451 OFFCURVE",
"112 433 OFFCURVE",
"112 411 CURVE SMOOTH",
"112 388 OFFCURVE",
"130 370 OFFCURVE",
"152 370 CURVE SMOOTH"
);
}
);
width = 298;
},
{
layerId = "4E2227F3-52E4-4048-A8EE-327B486EF0A4";
paths = (
{
closed = 1;
nodes = (
"154 -111 LINE",
"217 160 LINE",
"49 160 LINE",
"32 -111 LINE"
);
},
{
closed = 1;
nodes = (
"191 291 OFFCURVE",
"234 338 OFFCURVE",
"234 396 CURVE SMOOTH",
"234 454 OFFCURVE",
"182 500 OFFCURVE",
"129 500 CURVE SMOOTH",
"76 500 OFFCURVE",
"24 454 OFFCURVE",
"24 396 CURVE SMOOTH",
"24 338 OFFCURVE",
"67 291 OFFCURVE",
"129 291 CURVE SMOOTH"
);
}
);
width = 258;
}
);
leftKerningGroup = colon;
unicode = 003B;
},
{
glyphname = slash;
lastChange = "2016-11-17 13:42:12 +0000";
layers = (
{
layerId = "262880E7-CFE1-4BDA-902E-E24798F3240A";
paths = (
{
closed = 1;
nodes = (
"22 0 LINE",
"218 700 LINE",
"196 700 LINE",
"0 0 LINE"
);
}
);
width = 218;
},
{
layerId = "4E2227F3-52E4-4048-A8EE-327B486EF0A4";
paths = (
{
closed = 1;
nodes = (
"188 0 LINE",
"442 700 LINE",
"254 700 LINE",
"0 0 LINE"
);
}
);
width = 442;
}
);
unicode = 002F;
},
{
glyphname = emdash;
lastChange = "2016-11-17 13:42:12 +0000";
layers = (
{
layerId = "262880E7-CFE1-4BDA-902E-E24798F3240A";
paths = (
{
closed = 1;
nodes = (
"423 251 LINE",
"423 272 LINE",
"23 272 LINE",
"23 251 LINE"
);
}
);
width = 446;
},
{
layerId = "4E2227F3-52E4-4048-A8EE-327B486EF0A4";
paths = (
{
closed = 1;
nodes = (
"419 165 LINE",
"419 325 LINE",
"12 325 LINE",
"12 165 LINE"
);
}
);
width = 431;
}
);
leftKerningGroup = hyphen;
rightKerningGroup = hyphen;
unicode = 2014;
},
{
glyphname = hyphen;
lastChange = "2016-11-17 13:42:12 +0000";
layers = (
{
layerId = "262880E7-CFE1-4BDA-902E-E24798F3240A";
paths = (
{
closed = 1;
nodes = (
"276 251 LINE",
"276 272 LINE",
"23 272 LINE",
"23 251 LINE"
);
}
);
width = 299;
},
{
layerId = "4E2227F3-52E4-4048-A8EE-327B486EF0A4";
paths = (
{
closed = 1;
nodes = (
"299 165 LINE",
"299 325 LINE",
"12 325 LINE",
"12 165 LINE"
);
}
);
width = 311;
}
);
leftKerningGroup = hyphen;
rightKerningGroup = hyphen;
unicode = 002D;
},
{
glyphname = quotedblleft;
lastChange = "2016-11-17 17:38:49 +0000";
layers = (
{
layerId = "262880E7-CFE1-4BDA-902E-E24798F3240A";
paths = (
{
closed = 1;
nodes = (
"94 507 LINE",
"26 697 LINE",
"0 697 LINE",
"74 507 LINE"
);
},
{
closed = 1;
nodes = (
"174 507 LINE",
"106 697 LINE",
"80 697 LINE",
"154 507 LINE"
);
}
);
width = 174;
},
{
layerId = "4E2227F3-52E4-4048-A8EE-327B486EF0A4";
paths = (
{
closed = 1;
nodes = (
"260 460 LINE",
"177 700 LINE",
"0 700 LINE",
"101 460 LINE"
);
},
{
closed = 1;
nodes = (
"443 460 LINE",
"374 700 LINE",
"199 700 LINE",
"283 460 LINE"
);
}
);
width = 443;
}
);
leftMetricsKey = "=quoteleft";
rightMetricsKey = "=quoteleft";
unicode = 201C;
},
{
glyphname = quoteleft;
lastChange = "2016-11-17 17:37:23 +0000";
layers = (
{
layerId = "262880E7-CFE1-4BDA-902E-E24798F3240A";
paths = (
{
closed = 1;
nodes = (
"26 697 LINE",
"0 697 LINE",
"74 507 LINE",
"94 507 LINE"
);
}
);
width = 94;
},
{
layerId = "4E2227F3-52E4-4048-A8EE-327B486EF0A4";
paths = (
{
closed = 1;
nodes = (
"187.96 700 LINE",
"-0.04 700 LINE",
"83.402 460 LINE",
"231.402 460 LINE"
);
}
);
width = 231;
}
);
unicode = 2018;
},
{
glyphname = dollar;
lastChange = "2016-11-17 13:13:52 +0000";
layers = (
{
layerId = "262880E7-CFE1-4BDA-902E-E24798F3240A";
paths = (
{
closed = 1;
nodes = (
"349 -5 OFFCURVE",
"412 50 OFFCURVE",
"412 149 CURVE SMOOTH",
"412 255 OFFCURVE",
"339 307 OFFCURVE",
"257 361 CURVE SMOOTH",
"176 414 OFFCURVE",
"112 457 OFFCURVE",
"112 550 CURVE SMOOTH",
"112 634 OFFCURVE",
"164 684 OFFCURVE",
"248 684 CURVE SMOOTH",
"332 684 OFFCURVE",
"384 635 OFFCURVE",
"384 548 CURVE SMOOTH",
"384 500 LINE",
"406 500 LINE",
"406 550 LINE SMOOTH",
"406 650 OFFCURVE",
"346 705 OFFCURVE",
"248 705 CURVE SMOOTH",
"150 705 OFFCURVE",
"90 649 OFFCURVE",
"90 553 CURVE SMOOTH",
"90 446 OFFCURVE",
"165 394 OFFCURVE",
"243 342 CURVE SMOOTH",
"320 291 OFFCURVE",
"390 248 OFFCURVE",
"390 152 CURVE SMOOTH",
"390 67 OFFCURVE",
"335 15 OFFCURVE",
"250 15 CURVE SMOOTH",
"165 15 OFFCURVE",
"118 68 OFFCURVE",
"118 154 CURVE SMOOTH",
"118 200 LINE",
"96 200 LINE",
"96 150 LINE SMOOTH",
"96 50 OFFCURVE",
"152 -5 OFFCURVE",
"251 -5 CURVE SMOOTH"
);
},
{
closed = 1;
nodes = (
"265 -88 LINE",
"265 2 LINE",
"243 2 LINE",
"243 -88 LINE"
);
},
{
closed = 1;
nodes = (
"258 702 LINE",
"258 792 LINE",
"236 792 LINE",
"236 702 LINE"
);
}
);
width = 502;
},
{
layerId = "4E2227F3-52E4-4048-A8EE-327B486EF0A4";
paths = (
{
closed = 1;
nodes = (
"367 -8 OFFCURVE",
"456 70 OFFCURVE",
"456 187 CURVE SMOOTH",
"456 288 OFFCURVE",
"389 338 OFFCURVE",
"284 412 CURVE SMOOTH",
"217 459 OFFCURVE",
"197 475 OFFCURVE",
"197 508 CURVE SMOOTH",
"197 534 OFFCURVE",
"210 548 OFFCURVE",
"231 548 CURVE SMOOTH",
"252 548 OFFCURVE",
"266 534 OFFCURVE",
"266 514 CURVE SMOOTH",
"266 490 LINE",
"451 490 LINE",
"451 509 LINE SMOOTH",
"451 628 OFFCURVE",
"364 708 OFFCURVE",
"232 708 CURVE SMOOTH",
"99 708 OFFCURVE",
"12 628 OFFCURVE",
"12 510 CURVE SMOOTH",
"12 387 OFFCURVE",
"107 322 OFFCURVE",
"182 272 CURVE SMOOTH",
"252 225 OFFCURVE",
"271 211 OFFCURVE",
"271 186 CURVE SMOOTH",
"271 164 OFFCURVE",
"257 152 OFFCURVE",
"237 152 CURVE SMOOTH",
"216 152 OFFCURVE",
"202 166 OFFCURVE",
"202 188 CURVE SMOOTH",
"202 211 LINE",
"17 211 LINE",
"17 180 LINE SMOOTH",
"17 70 OFFCURVE",
"102 -8 OFFCURVE",
"235 -8 CURVE SMOOTH"
);
},
{
closed = 1;
nodes = (
"292 -68 LINE",
"289 53 LINE",
"176 53 LINE",
"173 -68 LINE"
);
},
{
closed = 1;
nodes = (
"289 657 LINE",
"292 778 LINE",
"174 778 LINE",
"177 657 LINE"
);
}
);
width = 468;
}
);
unicode = 0024;
},
{
glyphname = at;
lastChange = "2016-11-17 13:44:41 +0000";
layers = (
{
components = (
{
name = a.alt;
transform = "{0.6667, 0, 0, 0.6667, 284, 112}";
}
);
layerId = "262880E7-CFE1-4BDA-902E-E24798F3240A";
paths = (
{
closed = 1;
nodes = (
"640 -71 OFFCURVE",
"802 92 OFFCURVE",
"802 290 CURVE SMOOTH",
"802 488 OFFCURVE",
"640 651 OFFCURVE",
"441 651 CURVE SMOOTH",
"242 651 OFFCURVE",
"80 488 OFFCURVE",
"80 290 CURVE SMOOTH",
"80 92 OFFCURVE",
"242 -71 OFFCURVE",
"441 -71 CURVE SMOOTH"
);
},
{
closed = 1;
nodes = (
"254 -50 OFFCURVE",
"102 102 OFFCURVE",
"102 290 CURVE SMOOTH",
"102 478 OFFCURVE",
"254 630 OFFCURVE",
"441 630 CURVE SMOOTH",
"628 630 OFFCURVE",
"780 478 OFFCURVE",
"780 290 CURVE SMOOTH",
"780 102 OFFCURVE",
"628 -50 OFFCURVE",
"441 -50 CURVE SMOOTH"
);
}
);
width = 882;
},
{
components = (
{
name = a.alt;
transform = "{0.5714, 0, 0, 0.5714, 284, 143}";
}
);
layerId = "4E2227F3-52E4-4048-A8EE-327B486EF0A4";
paths = (
{
closed = 1;
nodes = (
"623 -62 OFFCURVE",
"782 96 OFFCURVE",
"782 292 CURVE SMOOTH",
"782 486 OFFCURVE",
"623 644 OFFCURVE",
"429 644 CURVE SMOOTH",
"235 644 OFFCURVE",
"77 486 OFFCURVE",
"77 292 CURVE SMOOTH",
"77 96 OFFCURVE",
"235 -62 OFFCURVE",
"429 -62 CURVE SMOOTH"
);
},
{
closed = 1;
nodes = (
"272 28 OFFCURVE",
"167 134 OFFCURVE",
"167 292 CURVE SMOOTH",
"167 449 OFFCURVE",
"272 554 OFFCURVE",
"429 554 CURVE SMOOTH",
"587 554 OFFCURVE",
"692 449 OFFCURVE",
"692 292 CURVE SMOOTH",
"692 134 OFFCURVE",
"587 28 OFFCURVE",
"429 28 CURVE SMOOTH"
);
}
);
width = 862;
}
);
unicode = 0040;
},
{
glyphname = copyright;
lastChange = "2016-11-17 19:04:20 +0000";
layers = (
{
components = (
{
name = C;
transform = "{0.5, 0, 0, 0.5, 330, 111}";
}
);
layerId = "262880E7-CFE1-4BDA-902E-E24798F3240A";
paths = (
{
closed = 1;
nodes = (
"640 -71 OFFCURVE",
"802 92 OFFCURVE",
"802 290 CURVE SMOOTH",
"802 488 OFFCURVE",
"640 651 OFFCURVE",
"441 651 CURVE SMOOTH",
"242 651 OFFCURVE",
"80 488 OFFCURVE",
"80 290 CURVE SMOOTH",
"80 92 OFFCURVE",
"242 -71 OFFCURVE",
"441 -71 CURVE SMOOTH"
);
},
{
closed = 1;
nodes = (
"254 -50 OFFCURVE",
"102 102 OFFCURVE",
"102 290 CURVE SMOOTH",
"102 478 OFFCURVE",
"254 630 OFFCURVE",
"441 630 CURVE SMOOTH",
"628 630 OFFCURVE",
"780 478 OFFCURVE",
"780 290 CURVE SMOOTH",
"780 102 OFFCURVE",
"628 -50 OFFCURVE",
"441 -50 CURVE SMOOTH"
);
}
);
width = 882;
},
{
components = (
{
name = C;
transform = "{0.5, 0, 0, 0.5, 310, 111}";
}
);
layerId = "4E2227F3-52E4-4048-A8EE-327B486EF0A4";
paths = (
{
closed = 1;
nodes = (
"623 -62 OFFCURVE",
"782 96 OFFCURVE",
"782 292 CURVE SMOOTH",
"782 486 OFFCURVE",
"623 644 OFFCURVE",
"429 644 CURVE SMOOTH",
"235 644 OFFCURVE",
"77 486 OFFCURVE",
"77 292 CURVE SMOOTH",
"77 96 OFFCURVE",
"235 -62 OFFCURVE",
"429 -62 CURVE SMOOTH"
);
},
{
closed = 1;
nodes = (
"272 28 OFFCURVE",
"167 134 OFFCURVE",
"167 292 CURVE SMOOTH",
"167 449 OFFCURVE",
"272 554 OFFCURVE",
"429 554 CURVE SMOOTH",
"587 554 OFFCURVE",
"692 449 OFFCURVE",
"692 292 CURVE SMOOTH",
"692 134 OFFCURVE",
"587 28 OFFCURVE",
"429 28 CURVE SMOOTH"
);
}
);
width = 882;
}
);
unicode = 00A9;
},
{
glyphname = registered;
lastChange = "2016-11-17 19:17:51 +0000";
layers = (
{
components = (
{
name = R;
transform = "{0.5, 0, 0, 0.5, 347, 111}";
}
);
layerId = "262880E7-CFE1-4BDA-902E-E24798F3240A";
paths = (
{
closed = 1;
nodes = (
"640 -72 OFFCURVE",
"802 91 OFFCURVE",
"802 289 CURVE SMOOTH",
"802 487 OFFCURVE",
"640 650 OFFCURVE",
"441 650 CURVE SMOOTH",
"242 650 OFFCURVE",
"80 487 OFFCURVE",
"80 289 CURVE SMOOTH",
"80 91 OFFCURVE",
"242 -72 OFFCURVE",
"441 -72 CURVE SMOOTH"
);
},
{
closed = 1;
nodes = (
"254 -51 OFFCURVE",
"102 101 OFFCURVE",
"102 289 CURVE SMOOTH",
"102 477 OFFCURVE",
"254 629 OFFCURVE",
"441 629 CURVE SMOOTH",
"628 629 OFFCURVE",
"780 477 OFFCURVE",
"780 289 CURVE SMOOTH",
"780 101 OFFCURVE",
"628 -51 OFFCURVE",
"441 -51 CURVE SMOOTH"
);
}
);
width = 882;
},
{
components = (
{
name = R;
transform = "{0.5, 0, 0, 0.5, 311, 111}";
}
);
layerId = "4E2227F3-52E4-4048-A8EE-327B486EF0A4";
paths = (
{
closed = 1;
nodes = (
"623 -62 OFFCURVE",
"782 96 OFFCURVE",
"782 292 CURVE SMOOTH",
"782 486 OFFCURVE",
"623 644 OFFCURVE",
"429 644 CURVE SMOOTH",
"235 644 OFFCURVE",
"77 486 OFFCURVE",
"77 292 CURVE SMOOTH",
"77 96 OFFCURVE",
"235 -62 OFFCURVE",
"429 -62 CURVE SMOOTH"
);
},
{
closed = 1;
nodes = (
"272 28 OFFCURVE",
"167 134 OFFCURVE",
"167 292 CURVE SMOOTH",
"167 449 OFFCURVE",
"272 554 OFFCURVE",
"429 554 CURVE SMOOTH",
"587 554 OFFCURVE",
"692 449 OFFCURVE",
"692 292 CURVE SMOOTH",
"692 134 OFFCURVE",
"587 28 OFFCURVE",
"429 28 CURVE SMOOTH"
);
}
);
width = 882;
}
);
unicode = 00AE;
},
